<?xml version="1.0" standalone="no"?>
<!DOCTYPE svg PUBLIC "-//W3C//DTD SVG 1.1//EN" "http://www.w3.org/Graphics/SVG/1.1/DTD/svg11.dtd" >
<svg xmlns="http://www.w3.org/2000/svg">
<metadata></metadata>
<defs>
<font id="sailors_condensedregular" horiz-adv-x="1343" >
<font-face units-per-em="2048" ascent="1638" descent="-410" />
<missing-glyph horiz-adv-x="614" />
<glyph horiz-adv-x="0" />
<glyph horiz-adv-x="682" />
<glyph horiz-adv-x="0" />
<glyph horiz-adv-x="0" />
<glyph unicode="&#xd;" horiz-adv-x="614" />
<glyph unicode=" "  horiz-adv-x="614" />
<glyph unicode="&#x09;" horiz-adv-x="614" />
<glyph unicode="&#xa0;" horiz-adv-x="614" />
<glyph unicode="!" horiz-adv-x="475" d="M102 1724q0 26 17.5 44t42.5 18h151q25 0 42.5 -18t17.5 -44l-17 -1271q0 -25 -17 -42.5t-42 -17.5h-121q-23 0 -40 17.5t-19 42.5zM121 59v113q0 25 17 42t42 17h113q25 0 42 -17t17 -42v-113q0 -25 -17 -42t-42 -17h-113q-25 0 -42 17t-17 42z" />
<glyph unicode="&#x22;" horiz-adv-x="751" d="M102 1405v344q0 25 17.5 42t42.5 17h112q25 0 42.5 -17t17.5 -42v-344q0 -25 -17.5 -42t-42.5 -17h-112q-25 0 -42.5 17t-17.5 42zM418 1405v344q0 25 17 42t42 17h113q25 0 42 -17t17 -42v-344q0 -25 -17 -42t-42 -17h-113q-25 0 -42 17t-17 42z" />
<glyph unicode="#" horiz-adv-x="1533" d="M106 477l27 113q6 20 22 32.5t38 12.5h126q20 0 36 12t22 31l106 397q6 30 -11 53t-46 23h-72q-29 0 -47 23t-10 51l27 112q4 20 20.5 32.5t36.5 12.5h137q20 0 36.5 12t20.5 31l87 316q4 20 20.5 32.5t36.5 12.5h100q29 0 47 -23.5t11 -52.5l-68 -254q-8 -28 10 -51 t47 -23h101q19 0 34 12t21 31l84 316q6 20 21.5 32.5t35.5 12.5h101q29 0 46.5 -23.5t10.5 -52.5l-68 -252v-2q-7 -28 11 -51t47 -23h61q28 0 46 -21.5t12 -49.5v-2l-27 -113q-6 -20 -22 -32.5t-38 -12.5h-126q-20 0 -36 -12.5t-22 -32.5l-106 -395q-6 -30 11 -53t46 -23h72 q29 0 46.5 -22t12.5 -50l-2 -2l-27 -112q-4 -20 -20.5 -33t-36.5 -13q-28 0 -64 1t-49.5 1t-30.5 -2t-25.5 -7t-16.5 -15q-6 -9 -6 -21l-86 -317q-4 -19 -21 -31t-37 -12h-100q-29 0 -47 23t-10 51l67 256q8 28 -10 50.5t-47 22.5h-101q-20 0 -35.5 -12t-21.5 -31l-84 -317 q-6 -19 -21.5 -31t-35.5 -12h-101q-29 0 -47 23t-10 51l68 256q7 28 -11 50.5t-47 22.5h-61q-29 0 -47 23t-11 51zM608 711q-7 -29 11 -52.5t47 -23.5h100q20 0 36.5 12t20.5 31l107 397q7 29 -11 52.5t-47 23.5h-100q-20 0 -36.5 -12.5t-20.5 -32.5z" />
<glyph unicode="$" horiz-adv-x="933" d="M102 610v54q0 23 13 39t32 16h140q20 0 33.5 -16t13.5 -39v-72q0 -96 34 -155.5t91 -59.5q58 0 92.5 59.5t34.5 155.5q0 98 -45 182.5t-164 204.5q-150 150 -209 275t-59 280q0 162 53 268.5t157 149.5q31 14 31 53v80q0 25 13.5 41t33.5 16h140q19 0 32 -16t13 -41v-78 q0 -39 32 -53q105 -41 159 -148.5t54 -271.5q0 -25 -13 -41t-32 -16h-139q-19 0 -32 16t-13 41v16q0 97 -33 157t-90 60t-90 -60t-33 -157q0 -98 45 -182.5t164 -204.5q152 -152 211 -275t59 -278q0 -165 -55 -272t-162 -150q-32 -14 -32 -53v-78q0 -25 -13 -41t-32 -16 h-140q-20 0 -33.5 16t-13.5 41v78q0 39 -31 53q-107 43 -162 150t-55 272z" />
<glyph unicode="%" horiz-adv-x="1226" d="M102 1491q0 121 87 208t208 87q123 0 210 -86.5t87 -208.5q0 -123 -87 -210t-210 -87q-122 0 -208.5 87t-86.5 210zM109 84l778 1667q17 35 53 35h125q32 0 49.5 -27.5t3.5 -56.5l-778 -1667q-15 -35 -53 -35h-125q-32 0 -49.5 27.5t-3.5 56.5zM334 1491q0 -28 18.5 -47 t44.5 -19q28 0 47 19t19 47q0 26 -19 44.5t-47 18.5q-26 0 -44.5 -18.5t-18.5 -44.5zM535 295q0 123 85.5 209t208.5 86t209 -86t86 -209q0 -122 -86 -208.5t-209 -86.5t-208.5 86.5t-85.5 208.5zM766 295q0 -26 18.5 -45t44.5 -19t45 19t19 45q0 27 -18.5 46t-45.5 19 q-26 0 -44.5 -18.5t-18.5 -46.5z" />
<glyph unicode="&#x26;" horiz-adv-x="1130" d="M102 721q0 117 38.5 222t107.5 181q19 27 2 54q-92 136 -92 311q0 158 75 284t197 179q21 10 21 35v118q0 15 8.5 26t21.5 11h170q12 0 21.5 -11t9.5 -26v-118q0 -23 23 -35q105 -45 178 -151.5t88 -241.5q3 -31 -21 -41l-166 -66q-15 -6 -28 5.5t-13 31.5 q0 91 -53 172.5t-123 81.5q-71 0 -123.5 -81t-52.5 -173q0 -85 49 -148t125 -63h6q12 0 21.5 -11t9.5 -26v-209q0 -14 -9.5 -25.5t-21.5 -11.5h-6q-99 0 -164 -81t-65 -193q0 -120 68.5 -220t160.5 -100q82 0 147 83.5t81 185.5q3 15 -6.5 28t-24.5 13h-12q-12 0 -21.5 12 t-9.5 27v204q0 17 9 27t22 10h247q14 0 22.5 -10t8.5 -27v-243q0 -70 -14 -133q-31 -139 -113.5 -243t-195.5 -147q-23 -12 -23 -34v-117q0 -15 -9.5 -26t-21.5 -11h-170q-13 0 -21.5 11t-8.5 26v117q0 22 -23 34q-144 55 -235 201.5t-91 331.5z" />
<glyph unicode="'" horiz-adv-x="436" d="M102 1405v344q0 25 17.5 42t42.5 17h112q25 0 42.5 -17t17.5 -42v-344q0 -25 -17.5 -42t-42.5 -17h-112q-25 0 -42.5 17t-17.5 42z" />
<glyph unicode="(" horiz-adv-x="610" d="M104.5 875q-7.5 255 34.5 516t135 530q9 26 34 38t48 1l107 -53q24 -12 34 -38.5t1 -51.5q-84 -243 -122 -479t-30 -467t47 -449t111 -465q8 -28 -3.5 -53.5t-35.5 -34.5l-111 -43q-23 -10 -46.5 3t-31.5 40q-79 268 -121.5 509.5t-50 496.5z" />
<glyph unicode=")" horiz-adv-x="610" d="M106 -43q73 246 112 464.5t47 449.5t-29.5 467t-120.5 479q-10 25 -0.5 51.5t32.5 38.5l107 53q23 11 48 -1t34 -38q93 -269 135.5 -530t34.5 -516.5t-50 -496.5t-122 -509q-8 -27 -31 -40t-47 -3l-111 43q-23 9 -34.5 34.5t-4.5 53.5z" />
<glyph unicode="*" horiz-adv-x="540" d="M105.5 1566q2.5 11 11.5 15l43 25q12 8 12 22t-12 21l-43 24q-9 4 -11.5 15t3.5 18l12 23q5 9 14.5 11.5t18.5 -3.5l43 -25q12 -6 24 1t12 22v49q0 10 8 17t17 7h25q11 0 17.5 -7t6.5 -17v-49q0 -15 12.5 -22t24.5 -1l45 25q7 6 18 3.5t15 -11.5l12 -23q5 -7 2 -18 t-10 -15l-43 -24q-12 -7 -12 -21t12 -22l43 -25q7 -4 10 -15t-2 -18l-12 -22q-4 -9 -15 -11.5t-18 3.5l-45 24q-12 6 -24.5 -0.5t-12.5 -21.5v-50q0 -10 -6.5 -17t-17.5 -7h-25q-9 0 -17 7t-8 17v50q0 15 -12 21.5t-24 0.5l-43 -24q-9 -6 -18.5 -3.5t-14.5 11.5l-12 22 q-6 7 -3.5 18z" />
<glyph unicode="+" horiz-adv-x="1157" d="M102 694v113q0 25 17.5 42t42.5 17h241q25 0 42.5 17.5t17.5 42.5v241q0 25 17 42.5t42 17.5h113q25 0 42 -17.5t17 -42.5v-241q0 -25 17.5 -42.5t42.5 -17.5h241q25 0 42.5 -17t17.5 -42v-113q0 -25 -17.5 -42t-42.5 -17h-241q-25 0 -42.5 -17.5t-17.5 -42.5v-241 q0 -25 -17 -42.5t-42 -17.5h-113q-25 0 -42 17.5t-17 42.5v241q0 25 -17.5 42.5t-42.5 17.5h-241q-25 0 -42.5 17t-17.5 42z" />
<glyph unicode="," horiz-adv-x="436" d="M102 176q0 23 16.5 39t39.5 16h121q23 0 39 -16t16 -39v-352q0 -23 -16 -39t-39 -16h-121q-23 0 -39.5 16t-16.5 39v352z" />
<glyph unicode="-" horiz-adv-x="688" d="M102 694v113q0 25 17.5 42t42.5 17h364q25 0 42.5 -17t17.5 -42v-113q0 -25 -17.5 -42t-42.5 -17h-364q-25 0 -42.5 17t-17.5 42z" />
<glyph unicode="." horiz-adv-x="436" d="M102 59v113q0 25 17.5 42t42.5 17h112q25 0 42.5 -17t17.5 -42v-113q0 -25 -17.5 -42t-42.5 -17h-112q-25 0 -42.5 17t-17.5 42z" />
<glyph unicode="/" horiz-adv-x="1226" d="M109 84l778 1667q15 35 53 35h125q32 0 49.5 -27.5t3.5 -56.5l-778 -1667q-18 -35 -53 -35h-125q-32 0 -49.5 27.5t-3.5 56.5z" />
<glyph unicode="0" horiz-adv-x="1304" d="M102 891q0 353 148 614q78 135 182 208t219 73q117 0 221.5 -73t182.5 -208q147 -260 147 -614q0 -350 -147 -610q-78 -135 -182.5 -208t-221.5 -73q-115 0 -219 73t-182 208q-71 125 -109.5 283t-38.5 327zM334 891q0 -165 43 -317t116.5 -246.5t157.5 -94.5 q85 0 159.5 94.5t117.5 246.5t43 317q0 167 -43 319.5t-117.5 247t-159.5 94.5q-84 0 -157.5 -94.5t-116.5 -247t-43 -319.5z" />
<glyph unicode="1" horiz-adv-x="608" d="M102 1614v112q0 25 17.5 42.5t42.5 17.5h284q25 0 42.5 -17.5t17.5 -42.5v-1667q0 -25 -17.5 -42t-42.5 -17h-112q-25 0 -42.5 17t-17.5 42v1436q0 25 -17 42t-42 17h-53q-25 0 -42.5 17.5t-17.5 42.5z" />
<glyph unicode="2" horiz-adv-x="1040" d="M104 66q-1 66 0 124.5t7 111t23.5 106t48 109t80.5 119.5t122 138q162 170 230.5 299.5t68.5 269.5q0 117 -73 173t-151 6.5t-91 -191.5q-2 -26 -19.5 -44.5t-42.5 -18.5h-137q-26 0 -46 20t-20 47q0 109 36 197t94.5 142t133.5 83t153 28.5t153 -30t133.5 -83.5 t94.5 -141.5t36 -195.5q0 -102 -25 -196.5t-67 -169t-93 -142.5t-106.5 -127.5t-103.5 -112.5t-88.5 -110t-57.5 -108q-11 -34 8.5 -64.5t51.5 -30.5h391q28 0 45.5 -18.5t17.5 -46.5v-141q0 -29 -17.5 -48.5t-45.5 -19.5h-678q-27 0 -46.5 19.5t-19.5 46.5z" />
<glyph unicode="3" horiz-adv-x="1241" d="M104 295q4 11 19 22l133 76q12 8 26 5t21 -15q45 -72 119.5 -115t161.5 -43q136 0 232.5 96.5t96.5 233.5q0 128 -87 222.5t-214 105.5q-13 1 -22.5 12t-9.5 25v194q0 13 8.5 23.5t21.5 11.5q77 9 129 68t52 137q0 86 -60.5 146.5t-146.5 60.5q-71 0 -127.5 -45 t-73.5 -115q-3 -17 -18 -23q-15 -8 -29 -2l-133 49q-19 7 -27 25t-2 37q42 132 155.5 215.5t254.5 83.5q180 0 306 -126.5t126 -305.5q0 -170 -115 -295q-10 -7 -10 -27q4 -19 14 -24q108 -78 171 -197t63 -256q0 -112 -44 -215t-118 -177.5t-177 -118.5t-216 -44 q-149 0 -274.5 72.5t-200.5 195.5q-8 16 -5 27z" />
<glyph unicode="4" horiz-adv-x="1001" d="M102 614v162q0 11 4 23l410 952q6 15 21 25t32 10h156q25 0 42 -17t17 -40v-883q0 -25 16.5 -41.5t41.5 -16.5t41 -17t16 -42v-115q0 -24 -16.5 -40.5t-40.5 -16.5t-41 -16.5t-17 -40.5v-443q0 -23 -17 -40t-42 -17h-115q-23 0 -40 17t-17 40v443q0 23 -17 40t-42 17 h-334q-23 0 -40.5 17t-17.5 40zM358 868q-11 -30 6.5 -55t49.5 -25h80q25 0 42 16.5t17 41.5v401q0 15 -14 19q-12 3 -21 -11z" />
<glyph unicode="5" horiz-adv-x="1349" d="M104 412q-7 27 9 49t45 22h123q35 0 49 -34q40 -100 131 -162t203 -62q148 0 253 105t105 254q0 148 -105 253t-253 105q-50 0 -93 -12q-23 -4 -39 4l-147 74q-17 8 -25 25.5t-4 37.5l179 670q4 20 20.5 32.5t36.5 12.5h571q25 0 43.5 -17.5t18.5 -42.5v-112 q0 -25 -18.5 -42.5t-43.5 -17.5h-399q-20 0 -36.5 -12.5t-20.5 -32.5l-78 -297q-6 -14 6 -30q9 -15 29 -15q158 0 292.5 -78t212.5 -212.5t78 -292.5t-78 -292.5t-212.5 -213t-292.5 -78.5q-194 0 -349 115.5t-211 296.5z" />
<glyph unicode="6" horiz-adv-x="1372" d="M102 584q0 69 11 122t51 142.5t86 179.5t147.5 295.5t204.5 427.5q18 35 55 35h123q32 0 49.5 -27.5t4.5 -58.5l-234 -483q-9 -18 2 -37q14 -18 33 -15q16 2 51 2q158 0 292.5 -78t213 -212.5t78.5 -292.5t-78.5 -292.5t-213 -213t-292.5 -78.5t-292.5 78.5t-213 213 t-78.5 292.5zM328 584q0 -149 104.5 -254t253.5 -105q148 0 253 105t105 254q0 148 -105 253t-253 105q-149 0 -253.5 -105t-104.5 -253z" />
<glyph unicode="7" horiz-adv-x="1150" d="M111 88l667 1436q4 11 -2 20q-7 10 -18 10h-500q-26 0 -43.5 18.5t-17.5 43.5v108q0 25 17.5 43.5t43.5 18.5h729q26 0 44 -18.5t18 -43.5v-163q0 -9 -2 -13l-707 -1513q-18 -35 -55 -35h-119q-35 0 -51 29q-19 29 -4 59z" />
<glyph unicode="8" horiz-adv-x="1314" d="M102 555q0 148 73.5 275t195.5 200q-69 61 -107.5 145t-38.5 179q0 178 126.5 305t305.5 127t306 -127t127 -305q0 -94 -39 -178t-107 -146q122 -73 195 -200t73 -275q0 -112 -44 -215t-118.5 -177.5t-177.5 -118.5t-215 -44t-215 44t-177.5 118.5t-118.5 177.5t-44 215z M328 555q0 -137 96.5 -233.5t232.5 -96.5q137 0 233.5 96.5t96.5 233.5t-96.5 233.5t-233.5 96.5q-136 0 -232.5 -96.5t-96.5 -233.5zM451 1354q0 -86 60 -146.5t146 -60.5t146.5 60.5t60.5 146.5t-60.5 146.5t-146.5 60.5t-146 -60.5t-60 -146.5z" />
<glyph unicode="9" horiz-adv-x="1372" d="M102 1202q0 158 78.5 292.5t213 213t292.5 78.5t292.5 -78.5t213 -213t78.5 -292.5q0 -68 -11.5 -122t-51 -142.5t-86 -179t-147.5 -295.5t-204 -428q-18 -35 -55 -35h-123q-32 0 -49 27.5t-4 58.5l233 483q8 17 -2 37q-14 18 -33 15q-24 -3 -51 -3q-158 0 -292.5 78.5 t-213 213t-78.5 292.5zM328 1202q0 -149 104.5 -253.5t253.5 -104.5q148 0 253 104.5t105 253.5q0 148 -105 253.5t-253 105.5q-149 0 -253.5 -105.5t-104.5 -253.5z" />
<glyph unicode=":" horiz-adv-x="436" d="M102 59v113q0 25 17.5 42t42.5 17h112q25 0 42.5 -17t17.5 -42v-113q0 -25 -17.5 -42t-42.5 -17h-112q-25 0 -42.5 17t-17.5 42zM102 752v112q0 25 17.5 42.5t42.5 17.5h112q25 0 42.5 -17.5t17.5 -42.5v-112q0 -25 -17.5 -42.5t-42.5 -17.5h-112q-25 0 -42.5 17.5 t-17.5 42.5z" />
<glyph unicode=";" horiz-adv-x="436" d="M102 -172v344q0 25 17.5 42t42.5 17h112q25 0 42.5 -17t17.5 -42v-344q0 -25 -17.5 -42t-42.5 -17h-112q-25 0 -42.5 17t-17.5 42zM102 752v112q0 25 17.5 42.5t42.5 17.5h112q25 0 42.5 -17.5t17.5 -42.5v-112q0 -25 -17.5 -42.5t-42.5 -17.5h-112q-25 0 -42.5 17.5 t-17.5 42.5z" />
<glyph unicode="&#x3c;" horiz-adv-x="567" d="M102 674v153q0 13 8.5 26t20.5 19l260 123q26 11 50 -4t24 -43v-104q0 -33 -31 -47q-29 -13 -29 -46t29 -46q31 -14 31 -48v-104q0 -28 -24 -43t-50 -4l-260 123q-29 15 -29 45z" />
<glyph unicode="=" horiz-adv-x="1157" d="M102 465v113q0 25 17.5 42t42.5 17h833q25 0 42.5 -17t17.5 -42v-113q0 -25 -17.5 -42t-42.5 -17h-833q-25 0 -42.5 17t-17.5 42zM102 924v112q0 25 17.5 42.5t42.5 17.5h833q25 0 42.5 -17.5t17.5 -42.5v-112q0 -25 -17.5 -42.5t-42.5 -17.5h-833q-25 0 -42.5 17.5 t-17.5 42.5z" />
<glyph unicode="&#x3e;" horiz-adv-x="567" d="M102 553v104q0 33 29 48q31 13 31 46t-31 46q-29 15 -29 47v104q0 28 23.5 43t48.5 4l260 -123q31 -14 31 -45v-153q0 -31 -31 -45l-260 -123q-25 -11 -48.5 4t-23.5 43z" />
<glyph unicode="?" horiz-adv-x="921" d="M104 1438q13 89 51 159.5t90.5 112.5t115.5 61.5t126.5 14t123.5 -36.5t106 -83t74 -134t28 -182q0 -145 -30.5 -253.5t-118.5 -232.5q-82 -117 -103.5 -180.5t-21.5 -159.5v-135q0 -31 -17.5 -52.5t-42.5 -21.5h-112q-25 0 -42.5 22t-17.5 54v133q-2 76 11.5 142 t37.5 116t53.5 97t59.5 96t55 103t40.5 128t15.5 160q0 59 -22 102.5t-54.5 58.5t-66.5 11t-62.5 -38.5t-38.5 -90.5q-4 -26 -20.5 -41.5t-38.5 -15.5h-119q-28 0 -45 24q-18 27 -15 62zM313 59v113q0 25 17.5 42t42.5 17h112q25 0 42.5 -17t17.5 -42v-113q0 -25 -17.5 -42 t-42.5 -17h-112q-25 0 -42.5 17t-17.5 42z" />
<glyph unicode="@" horiz-adv-x="1992" d="M102 891q0 183 71 348.5t191 285.5t285.5 190.5t347.5 70.5q359 0 602 -227q186 -174 257 -431q65 -237 7 -442q-56 -199 -210 -282q-89 -48 -203 -48q-128 0 -231 70.5t-142 191.5q-4 15 -18 15h-137q-17 0 -21 -15q-2 -15 -11.5 -49.5t-10.5 -38.5q-5 -14 -19 -14h-209 q-9 0 -15 8.5t-5 18.5q31 113 235 880q10 15 21 15h219q10 0 20 -15q129 -488 136 -512q57 -197 103 -246q14 -15 28 -22q107 -49 170 37q60 82 51 238q-12 186 -118 340q-139 203 -382 244q-57 9 -117 9q-126 0 -241 -49t-198 -132t-132 -198t-49 -241q0 -125 49 -239 t132 -197t198 -132t241 -49q120 0 232 45q15 8 26 -10l95 -217q6 -15 -13 -24q-164 -68 -340 -68q-182 0 -347.5 70.5t-285.5 190t-191 284.5t-71 346zM977 899q-2 -9 4.5 -17t15.5 -8q8 0 14 8t5 17q-3 13 -19.5 13t-19.5 -13z" />
<glyph unicode="A" horiz-adv-x="1216" d="M106 90q164 721 371 1643q4 23 21 38t37 15h147q20 0 36.5 -15t20.5 -38q132 -587 209.5 -930t94 -415t31 -135.5t36.5 -162.5q2 -10 2 -19q0 -23 -12 -43q-18 -28 -47 -28h-117q-20 0 -35.5 14.5t-21.5 38.5q-3 15 -18.5 82.5t-29.5 130.5q-6 24 -22 38.5t-37 14.5h-328 q-21 0 -37 -14.5t-22 -38.5q-21 -101 -47 -213q-6 -24 -21.5 -38.5t-35.5 -14.5h-117q-29 0 -47 28q-13 20 -13 43q0 9 2 19zM479 684q-2 -10 -2 -19q0 -23 13 -43q18 -28 47 -28h143q29 0 47 28q12 19 12 42q0 10 -2 20q-1 4 -71 313q-6 33 -32 47q-13 7 -25.5 6.5 t-25.5 -6.5q-25 -14 -32 -47q-10 -43 -34 -149.5t-38 -163.5z" />
<glyph unicode="B" horiz-adv-x="1142" d="M102 70v1644q0 29 17.5 50.5t42.5 21.5h336q93 0 170 -36.5t127.5 -97t83.5 -140.5t41 -166q4 -36 5 -72q0 -51 -8 -102q-12 -88 -45 -164q-11 -22 -6.5 -46.5t21.5 -37.5q57 -56 94.5 -135t49.5 -165q8 -57 8 -116q0 -29 -2 -59q-6 -89 -39 -169t-83 -143t-128.5 -100 t-172.5 -37h-452q-25 0 -42.5 20.5t-17.5 49.5zM334 305q0 -29 17 -50.5t42 -21.5h225q53 0 94.5 30t63.5 78q22 47 32 105q5 29 5 60q0 28 -5 56q-10 58 -31.5 106t-63.5 78t-95 30h-225q-25 0 -42 -21t-17 -50v-400zM334 1081q0 -29 17 -50t42 -21h109q61 0 106.5 40 t65.5 100q21 61 22 133q0 68 -20 127q-20 60 -65.5 100t-108.5 40h-109q-25 0 -42 -20t-17 -49v-400z" />
<glyph unicode="C" horiz-adv-x="1333" d="M102 891q0 377 150 616q174 279 485 279q314 0 488 -279q6 -8 6 -19q1 -5 -1 -10q-4 -17 -16 -24l-145 -102q-26 -11 -41 10q-66 90 -148.5 139t-142.5 49q-29 0 -60.5 -7t-72 -26.5t-77 -49.5t-72.5 -82t-62.5 -118.5t-42.5 -163.5t-16 -212t16 -211.5t42.5 -163 t62.5 -118t72.5 -82t77 -50t72 -26.5t60.5 -7q60 0 142.5 50.5t148.5 140.5q16 22 41 8l145 -100q12 -7 16 -24q1 -5 1 -10q0 -11 -6 -19v-5q-175 -274 -488 -274q-310 0 -485 274q-150 245 -150 617z" />
<glyph unicode="D" horiz-adv-x="1155" d="M102 70v1644q0 29 17.5 50.5t42.5 21.5h172q216 0 381.5 -120.5t251.5 -322t86 -448.5q0 -185 -50.5 -348t-142 -284.5t-227.5 -192t-299 -70.5h-172q-25 0 -42.5 20.5t-17.5 49.5zM334 350q0 -32 20 -52q16 -17 38 -18q4 0 9 1q128 19 221 106t138 217.5t45 290.5 q0 159 -45 289t-138 217t-221 106q-4 1 -8 1q-22 0 -39 -18q-20 -21 -20 -52v-1088z" />
<glyph unicode="E" horiz-adv-x="942" d="M102 59v1667q0 25 17.5 42.5t42.5 17.5h618q25 0 42.5 -17.5t17.5 -42.5v-112q0 -25 -17.5 -42.5t-42.5 -17.5h-387q-25 0 -42 -17t-17 -42v-123q0 -25 17 -42t42 -17h256q26 0 44 -17.5t18 -42.5v-110q0 -25 -18 -43.5t-44 -18.5h-256q-25 0 -42 -17t-17 -42v-731 q0 -25 17 -42.5t42 -17.5h387q25 0 42.5 -17t17.5 -42v-113q0 -25 -17.5 -42t-42.5 -17h-618q-25 0 -42.5 17t-17.5 42z" />
<glyph unicode="F" horiz-adv-x="942" d="M102 59v1667q0 25 17.5 42.5t42.5 17.5h618q25 0 42.5 -17.5t17.5 -42.5v-112q0 -25 -17.5 -42.5t-42.5 -17.5h-387q-25 0 -42 -17t-17 -42v-123q0 -25 17 -42t42 -17h256q26 0 44 -17.5t18 -42.5v-110q0 -25 -18 -43.5t-44 -18.5h-256q-25 0 -42 -17t-17 -42v-963 q0 -25 -17.5 -42t-42.5 -17h-112q-25 0 -42.5 17t-17.5 42z" />
<glyph unicode="G" horiz-adv-x="1478" d="M102 891q0 377 150 616q174 279 487 279q314 0 488 -279q8 -12 5 -28t-15 -25l-148 -100q-9 -6 -20 -3.5t-19 11.5q-66 90 -148.5 140t-142.5 50q-43 0 -90 -14t-105.5 -58.5t-103 -113.5t-75.5 -192.5t-31 -282.5q0 -158 31 -281t75.5 -192t103 -113t105.5 -58t90 -14 q32 0 68.5 10t81.5 37t85.5 67t78 107.5t59.5 151.5q4 19 -5 34t-24 15h-249q-25 0 -42.5 21t-17.5 53v131q0 29 17.5 49.5t42.5 20.5h509q13 0 23 -10.5t10 -24.5q0 -380 -149 -621q-175 -274 -488 -274q-312 0 -487 274q-150 245 -150 617z" />
<glyph unicode="H" horiz-adv-x="1077" d="M102 59v1667q0 25 17.5 42.5t42.5 17.5h112q25 0 42.5 -17.5t17.5 -42.5v-354q0 -25 17 -42t42 -17h291q25 0 42 17t17 42v354q0 25 18 42.5t44 17.5h110q25 0 42.5 -17.5t17.5 -42.5v-1667q0 -25 -17.5 -42t-42.5 -17h-110q-26 0 -44 17t-18 42v963q0 25 -17 42t-42 17 h-291q-25 0 -42 -17t-17 -42v-963q0 -25 -17.5 -42t-42.5 -17h-112q-25 0 -42.5 17t-17.5 42z" />
<glyph unicode="I" horiz-adv-x="436" d="M102 59v1667q0 25 17.5 42.5t42.5 17.5h112q25 0 42.5 -17.5t17.5 -42.5v-1667q0 -25 -17.5 -42t-42.5 -17h-112q-25 0 -42.5 17t-17.5 42z" />
<glyph unicode="J" horiz-adv-x="874" d="M109 207q-4 11 -4 22q0 14 7 29q14 24 42 29l114 22q6 1 12 1q31 0 50 -27q27 -43 78 -51q10 -1 19 -1q40 0 73 26q41 32 41 89v1380q0 25 17.5 42.5t43.5 17.5h111q25 0 42 -17.5t17 -42.5v-1382q0 -80 -29.5 -146.5t-78.5 -107.5t-110 -66q-58 -24 -120 -24h-7 q-66 2 -126.5 21.5t-112 68t-79.5 117.5z" />
<glyph unicode="K" horiz-adv-x="1124" d="M102 74v1638q0 31 18 52.5t44 21.5h108q26 0 44 -21.5t18 -52.5v-606q0 -16 12 -19q10 -7 19 7l409 663q22 29 49 29h138q37 0 53 -39q7 -17 7 -33q0 -22 -13 -43l-455 -735q-11 -19 -11 -43t11 -43l455 -735q13 -21 13 -43q0 -16 -7 -33q-16 -39 -53 -39h-138 q-30 0 -49 29l-377 610q-8 8 -14 8q-8 0 -12 -8l-35 -55q-2 -2 -2 -11v-499q0 -32 -18 -53t-44 -21h-108q-26 0 -44 21t-18 53z" />
<glyph unicode="L" horiz-adv-x="888" d="M102 59v1667q0 25 17.5 42.5t42.5 17.5h112q25 0 42.5 -17.5t17.5 -42.5v-1435q0 -25 17 -42.5t42 -17.5h334q25 0 42 -17t17 -42v-113q0 -25 -17 -42t-42 -17h-565q-25 0 -42.5 17t-17.5 42z" />
<glyph unicode="M" horiz-adv-x="1550" d="M102 74v1638q0 31 18 52.5t44 21.5h141q20 0 37 -13.5t23 -35.5l385 -1258q6 -18 24 -18q22 0 25 18l385 1258q17 49 59 49h143q25 0 43.5 -22t18.5 -52v-1638q0 -32 -18.5 -53t-43.5 -21h-110q-25 0 -43.5 21t-18.5 53v786q0 10 -6 18.5t-14 10.5q-22 4 -29 -19 l-252 -821q-6 -23 -22 -36t-35 -13h-162q-44 0 -57 49l-252 821q-3 10 -11.5 15.5t-17.5 3.5q-22 -3 -22 -29v-786q0 -32 -18.5 -53t-43.5 -21h-108q-26 0 -44 21t-18 53z" />
<glyph unicode="N" horiz-adv-x="1161" d="M102 70v1644q0 29 17.5 50.5t42.5 21.5h157q18 0 33 -11.5t21 -29.5l411 -1043q6 -19 27 -16q16 6 16 29v999q0 29 18.5 50.5t43.5 21.5h110q25 0 42.5 -21.5t17.5 -50.5v-1644q0 -27 -17 -47q-20 -23 -43 -23h-157q-38 0 -54 41l-411 1042q-3 9 -10.5 13.5t-14.5 1.5 q-18 -3 -18 -27v-1001q0 -29 -18 -49.5t-44 -20.5h-110q-25 0 -42.5 20.5t-17.5 49.5z" />
<glyph unicode="O" d="M102 891q0 373 129 610q77 140 189.5 212.5t251.5 72.5t251 -72.5t189 -212.5q129 -237 129 -610q0 -368 -129 -608q-77 -138 -189 -210.5t-251 -72.5t-251.5 72.5t-189.5 210.5q-129 240 -129 608zM334 891q0 -39 2 -82.5t10.5 -112t22 -129t39.5 -126t60 -112t87 -76.5 t117 -30t117 30t87 76.5t60 112t39.5 126t22 129t10.5 112t2 82.5q0 40 -2 84t-10.5 113t-22 130t-39.5 126t-60 112t-87 77t-117 30t-117 -30t-87 -77t-60 -112t-39.5 -126t-22 -130t-10.5 -113t-2 -84z" />
<glyph unicode="P" horiz-adv-x="1030" d="M102 59v1667q0 25 17.5 42.5t42.5 17.5h338q103 0 186 -45.5t134 -119.5q50 -74 78 -169q28 -97 29 -197q0 -97 -28 -190q-28 -95 -79 -169t-134 -119.5t-186 -45.5h-107q-25 0 -42 -17t-17 -42v-613q0 -25 -17.5 -42t-42.5 -17h-112q-25 0 -42.5 17t-17.5 42zM334 1022 q0 -25 17 -42t42 -17h111q61 0 106 44q46 43 66 109q21 67 22 146q0 74 -20 138q-20 66 -65.5 110t-108.5 44h-111q-25 0 -42 -17t-17 -42v-473z" />
<glyph unicode="Q" d="M102 891q0 373 129 610q77 140 189.5 212.5t251.5 72.5t251 -72.5t189 -212.5q129 -237 129 -610q0 -368 -129 -608q-64 -116 -151 -185q10 -30 29.5 -84t27.5 -77q9 -23 -1.5 -46t-33.5 -30l-104 -39q-10 -3 -20 -3q-14 0 -27 5q-22 11 -31 35q-28 80 -53 147 q-38 -6 -76 -6q-140 0 -252.5 72t-188.5 211q-129 240 -129 608zM334 891q0 -38 2 -81.5t10 -111t21.5 -128t39 -125t59 -111.5t85.5 -78t115 -33q-8 23 -22.5 63t-22.5 64q-9 23 1 46t33 32l105 37q23 9 46 -1.5t32 -33.5q6 -17 18 -50.5t18 -49.5q43 56 72.5 138t42 167 t17 144.5t4.5 111.5q0 40 -2 84t-10.5 113t-22 130t-39.5 126t-60 112t-87 77t-117 30t-117 -30t-87 -77t-60 -112t-39.5 -126t-22 -130t-10.5 -113t-2 -84z" />
<glyph unicode="R" horiz-adv-x="1030" d="M102 59v1667q0 25 17.5 42.5t42.5 17.5h338q91 0 167 -36t126.5 -95.5t83.5 -139t44 -165.5q6 -44 6 -88q1 -44 -5 -86q-10 -88 -40 -165.5t-83 -141.5t-123 -99q-10 -4 -14.5 -15.5t0.5 -23.5q58 -161 89.5 -250t145.5 -401q11 -29 -7 -54.5t-50 -25.5h-117 q-43 0 -57 39q-46 127 -242 672q-10 20 -31 20q-25 0 -42 -17t-17 -42v-613q0 -25 -17.5 -42t-42.5 -17h-112q-25 0 -42.5 17t-17.5 42zM334 1022q0 -25 17 -42t42 -17h111q61 0 106 44q46 43 66 109q21 67 22 146q0 74 -20 138q-20 66 -65.5 110t-108.5 44h-111 q-25 0 -42 -17t-17 -42v-473z" />
<glyph unicode="S" horiz-adv-x="931" d="M102 438v54q0 23 13 38t32 15h140q19 0 33 -15t14 -38v-70q0 -172 125 -172q127 0 127 172q0 96 -45 179t-164 200q-150 148 -209 271t-59 276q0 210 92 324t268 114q175 0 266.5 -114.5t91.5 -323.5q0 -25 -13.5 -41.5t-33.5 -16.5h-137q-20 0 -33.5 16.5t-13.5 41.5v16 q0 91 -30.5 132.5t-90.5 41.5q-123 0 -123 -174q0 -96 45 -179t164 -200q151 -150 209.5 -271.5t58.5 -275.5q0 -212 -92.5 -325t-269.5 -113q-179 0 -272 113t-93 325z" />
<glyph unicode="T" horiz-adv-x="1050" d="M102 1614v112q0 25 17.5 42.5t42.5 17.5h725q26 0 43.5 -17.5t17.5 -42.5v-112q0 -25 -17.5 -42.5t-43.5 -17.5h-187q-25 0 -42 -17t-17 -42v-1436q0 -25 -17.5 -42t-43.5 -17h-111q-25 0 -42 17t-17 42v1436q0 25 -17.5 42t-42.5 17h-188q-25 0 -42.5 17.5t-17.5 42.5z " />
<glyph unicode="U" horiz-adv-x="1077" d="M102 436v1290q0 25 17.5 42.5t42.5 17.5h110q26 0 44 -17.5t18 -42.5v-1284q0 -88 61.5 -149.5t149.5 -61.5q83 0 140.5 58t57.5 141v1296q0 25 18.5 42.5t43.5 17.5h110q25 0 42.5 -17.5t17.5 -42.5v-1290q0 -182 -127.5 -309t-308.5 -127q-180 0 -308.5 128t-128.5 308 z" />
<glyph unicode="V" horiz-adv-x="1212" d="M104 1696q-2 9 -2 18q0 24 13 43q19 29 47 29h114q21 0 37.5 -14.5t22.5 -38.5q132 -577 244 -1088q7 -24 26 -24q9 0 16.5 7t8.5 17q198 872 246 1088q6 24 22 38.5t37 14.5h115q28 0 47 -29q12 -20 12 -43q0 -9 -2 -18q-22 -99 -36.5 -162.5t-31 -135.5t-94 -415 t-209.5 -930q-4 -23 -20.5 -38t-36.5 -15h-148q-20 0 -36.5 15t-20.5 38q-207 922 -371 1643z" />
<glyph unicode="W" horiz-adv-x="1689" d="M104 1696q-1 9 -1 17q0 26 14 46q17 27 47 27h110q22 0 38.5 -17t21.5 -43l174 -970q3 -15 16 -15q16 0 19 15l172 970q4 26 21.5 43t39.5 17h135q22 0 40 -17t22 -43q51 -280 174 -970q0 -15 16 -15q14 0 17 15l174 970q5 26 21 43t38 17h111q29 0 49 -27q13 -20 13 -47 q0 -7 -1 -14l-293 -1639q-4 -26 -21.5 -42.5t-39.5 -16.5h-135q-23 0 -40 16.5t-22 42.5l-190 1067l-191 -1067q-5 -26 -21 -42.5t-38 -16.5h-137q-22 0 -39 16.5t-21 42.5z" />
<glyph unicode="X" horiz-adv-x="1136" d="M111 102l327 836q3 6 0 16l-286 729q-6 18 -6 33q0 20 10 35q15 35 49 35h123q39 0 55 -41l170 -434q3 -13 16 -13q12 0 15 13l170 434q16 41 55 41h123q34 0 49 -35q10 -15 10 -35q0 -15 -6 -33l-287 -729q-3 -10 0 -16l328 -836q7 -15 7 -31q0 -20 -11 -40 q-17 -31 -49 -31h-123q-17 0 -32.5 11t-22.5 30l-211 539q-3 12 -15 12q-13 0 -16 -12l-211 -539q-7 -19 -22.5 -30t-32.5 -11h-123q-32 0 -49 31q-11 20 -11 40q0 16 7 31z" />
<glyph unicode="Y" horiz-adv-x="1140" d="M109 1706q-5 11 -5 21q0 16 11 32q20 27 49 27h119q41 0 55 -39l217 -594q3 -10 16 -10q14 0 17 10l215 594q14 39 57 39h117q32 0 49 -27q12 -14 12 -32q0 -10 -4 -21l-348 -956v-691q0 -25 -17 -42t-42 -17h-111q-25 0 -43 17t-18 42v691z" />
<glyph unicode="Z" horiz-adv-x="999" d="M102 59v158q0 13 7 27l520 1286q6 6 0 16q-3 8 -15 8h-452q-25 0 -42.5 18t-17.5 44v110q0 25 17.5 42.5t42.5 17.5h676q25 0 42 -17.5t17 -42.5v-157q0 -15 -6 -27l-520 -1286q-5 -7 0 -16q6 -9 14 -9h453q25 0 42 -17.5t17 -43.5v-111q0 -25 -17 -42t-42 -17h-676 q-25 0 -42.5 17t-17.5 42z" />
<glyph unicode="[" horiz-adv-x="659" d="M102 -117v2020q0 26 18 43.5t44 17.5h332q25 0 43 -17.5t18 -43.5v-115q0 -25 -18 -43.5t-43 -18.5h-93q-26 0 -43.5 -17.5t-17.5 -43.5v-1542q0 -26 17.5 -44t43.5 -18h93q25 0 43 -18t18 -43v-117q0 -26 -18 -43.5t-43 -17.5h-332q-26 0 -44 17.5t-18 43.5z" />
<glyph unicode="\" horiz-adv-x="1226" d="M109 1702q-14 29 3.5 56.5t49.5 27.5h125q38 0 53 -35l778 -1667q14 -29 -3.5 -56.5t-49.5 -27.5h-125q-36 0 -53 35z" />
<glyph unicode="]" horiz-adv-x="659" d="M102 0q0 25 18 43t44 18h92q25 0 43 18t18 44v1542q0 26 -18 43.5t-43 17.5h-92q-26 0 -44 18.5t-18 43.5v115q0 26 18 43.5t44 17.5h332q25 0 43 -17.5t18 -43.5v-2020q0 -26 -18 -43.5t-43 -17.5h-332q-26 0 -44 17.5t-18 43.5v117z" />
<glyph unicode="^" horiz-adv-x="706" d="M109 1520l122 260q14 28 45 28h154q31 0 45 -28l123 -260q11 -26 -4 -50t-43 -24h-105q-33 0 -47 31q-13 29 -46 29t-46 -29q-14 -31 -47 -31h-104q-28 0 -43 24t-4 50z" />
<glyph unicode="_" horiz-adv-x="1157" d="M102 59v113q0 25 17.5 42t42.5 17h833q25 0 42.5 -17t17.5 -42v-113q0 -25 -17.5 -42t-42.5 -17h-833q-25 0 -42.5 17t-17.5 42z" />
<glyph unicode="`" horiz-adv-x="516" d="M109 2179q-12 25 2.5 49.5t42.5 24.5h137q17 0 30.5 -11t18.5 -28l72 -260q6 -23 -9.5 -43.5t-40.5 -20.5h-81q-32 0 -45 29z" />
<glyph unicode="a" horiz-adv-x="1216" d="M106 90q164 721 371 1643q4 23 21 38t37 15h147q20 0 36.5 -15t20.5 -38q132 -587 209.5 -930t94 -415t31 -135.5t36.5 -162.5q2 -10 2 -19q0 -23 -12 -43q-18 -28 -47 -28h-117q-20 0 -35.5 14.5t-21.5 38.5q-3 15 -18.5 82.5t-29.5 130.5q-6 24 -22 38.5t-37 14.5h-328 q-21 0 -37 -14.5t-22 -38.5q-21 -101 -47 -213q-6 -24 -21.5 -38.5t-35.5 -14.5h-117q-29 0 -47 28q-13 20 -13 43q0 9 2 19zM479 684q-2 -10 -2 -19q0 -23 13 -43q18 -28 47 -28h143q29 0 47 28q12 19 12 42q0 10 -2 20q-1 4 -71 313q-6 33 -32 47q-13 7 -25.5 6.5 t-25.5 -6.5q-25 -14 -32 -47q-10 -43 -34 -149.5t-38 -163.5z" />
<glyph unicode="b" horiz-adv-x="1142" d="M102 70v1644q0 29 17.5 50.5t42.5 21.5h336q93 0 170 -36.5t127.5 -97t83.5 -140.5t41 -166q4 -36 5 -72q0 -51 -8 -102q-12 -88 -45 -164q-11 -22 -6.5 -46.5t21.5 -37.5q57 -56 94.5 -135t49.5 -165q8 -57 8 -116q0 -29 -2 -59q-6 -89 -39 -169t-83 -143t-128.5 -100 t-172.5 -37h-452q-25 0 -42.5 20.5t-17.5 49.5zM334 305q0 -29 17 -50.5t42 -21.5h225q53 0 94.5 30t63.5 78q22 47 32 105q5 29 5 60q0 28 -5 56q-10 58 -31.5 106t-63.5 78t-95 30h-225q-25 0 -42 -21t-17 -50v-400zM334 1081q0 -29 17 -50t42 -21h109q61 0 106.5 40 t65.5 100q21 61 22 133q0 68 -20 127q-20 60 -65.5 100t-108.5 40h-109q-25 0 -42 -20t-17 -49v-400z" />
<glyph unicode="c" horiz-adv-x="1333" d="M102 891q0 377 150 616q174 279 485 279q314 0 488 -279q6 -8 6 -19q1 -5 -1 -10q-4 -17 -16 -24l-145 -102q-26 -11 -41 10q-66 90 -148.5 139t-142.5 49q-29 0 -60.5 -7t-72 -26.5t-77 -49.5t-72.5 -82t-62.5 -118.5t-42.5 -163.5t-16 -212t16 -211.5t42.5 -163 t62.5 -118t72.5 -82t77 -50t72 -26.5t60.5 -7q60 0 142.5 50.5t148.5 140.5q16 22 41 8l145 -100q12 -7 16 -24q1 -5 1 -10q0 -11 -6 -19v-5q-175 -274 -488 -274q-310 0 -485 274q-150 245 -150 617z" />
<glyph unicode="d" horiz-adv-x="1155" d="M102 70v1644q0 29 17.5 50.5t42.5 21.5h172q216 0 381.5 -120.5t251.5 -322t86 -448.5q0 -185 -50.5 -348t-142 -284.5t-227.5 -192t-299 -70.5h-172q-25 0 -42.5 20.5t-17.5 49.5zM334 350q0 -32 20 -52q16 -17 38 -18q4 0 9 1q128 19 221 106t138 217.5t45 290.5 q0 159 -45 289t-138 217t-221 106q-4 1 -8 1q-22 0 -39 -18q-20 -21 -20 -52v-1088z" />
<glyph unicode="e" horiz-adv-x="942" d="M102 59v1667q0 25 17.5 42.5t42.5 17.5h618q25 0 42.5 -17.5t17.5 -42.5v-112q0 -25 -17.5 -42.5t-42.5 -17.5h-387q-25 0 -42 -17t-17 -42v-123q0 -25 17 -42t42 -17h256q26 0 44 -17.5t18 -42.5v-110q0 -25 -18 -43.5t-44 -18.5h-256q-25 0 -42 -17t-17 -42v-731 q0 -25 17 -42.5t42 -17.5h387q25 0 42.5 -17t17.5 -42v-113q0 -25 -17.5 -42t-42.5 -17h-618q-25 0 -42.5 17t-17.5 42z" />
<glyph unicode="f" horiz-adv-x="942" d="M102 59v1667q0 25 17.5 42.5t42.5 17.5h618q25 0 42.5 -17.5t17.5 -42.5v-112q0 -25 -17.5 -42.5t-42.5 -17.5h-387q-25 0 -42 -17t-17 -42v-123q0 -25 17 -42t42 -17h256q26 0 44 -17.5t18 -42.5v-110q0 -25 -18 -43.5t-44 -18.5h-256q-25 0 -42 -17t-17 -42v-963 q0 -25 -17.5 -42t-42.5 -17h-112q-25 0 -42.5 17t-17.5 42z" />
<glyph unicode="g" horiz-adv-x="1478" d="M102 891q0 377 150 616q174 279 487 279q314 0 488 -279q8 -12 5 -28t-15 -25l-148 -100q-9 -6 -20 -3.5t-19 11.5q-66 90 -148.5 140t-142.5 50q-43 0 -90 -14t-105.5 -58.5t-103 -113.5t-75.5 -192.5t-31 -282.5q0 -158 31 -281t75.5 -192t103 -113t105.5 -58t90 -14 q32 0 68.5 10t81.5 37t85.5 67t78 107.5t59.5 151.5q4 19 -5 34t-24 15h-249q-25 0 -42.5 21t-17.5 53v131q0 29 17.5 49.5t42.5 20.5h509q13 0 23 -10.5t10 -24.5q0 -380 -149 -621q-175 -274 -488 -274q-312 0 -487 274q-150 245 -150 617z" />
<glyph unicode="h" horiz-adv-x="1077" d="M102 59v1667q0 25 17.5 42.5t42.5 17.5h112q25 0 42.5 -17.5t17.5 -42.5v-354q0 -25 17 -42t42 -17h291q25 0 42 17t17 42v354q0 25 18 42.5t44 17.5h110q25 0 42.5 -17.5t17.5 -42.5v-1667q0 -25 -17.5 -42t-42.5 -17h-110q-26 0 -44 17t-18 42v963q0 25 -17 42t-42 17 h-291q-25 0 -42 -17t-17 -42v-963q0 -25 -17.5 -42t-42.5 -17h-112q-25 0 -42.5 17t-17.5 42z" />
<glyph unicode="i" horiz-adv-x="436" d="M102 59v1667q0 25 17.5 42.5t42.5 17.5h112q25 0 42.5 -17.5t17.5 -42.5v-1667q0 -25 -17.5 -42t-42.5 -17h-112q-25 0 -42.5 17t-17.5 42z" />
<glyph unicode="j" horiz-adv-x="874" d="M109 207q-4 11 -4 22q0 14 7 29q14 24 42 29l114 22q6 1 12 1q31 0 50 -27q27 -43 78 -51q10 -1 19 -1q40 0 73 26q41 32 41 89v1380q0 25 17.5 42.5t43.5 17.5h111q25 0 42 -17.5t17 -42.5v-1382q0 -80 -29.5 -146.5t-78.5 -107.5t-110 -66q-58 -24 -120 -24h-7 q-66 2 -126.5 21.5t-112 68t-79.5 117.5z" />
<glyph unicode="k" horiz-adv-x="1124" d="M102 74v1638q0 31 18 52.5t44 21.5h108q26 0 44 -21.5t18 -52.5v-606q0 -16 12 -19q10 -7 19 7l409 663q22 29 49 29h138q37 0 53 -39q7 -17 7 -33q0 -22 -13 -43l-455 -735q-11 -19 -11 -43t11 -43l455 -735q13 -21 13 -43q0 -16 -7 -33q-16 -39 -53 -39h-138 q-30 0 -49 29l-377 610q-8 8 -14 8q-8 0 -12 -8l-35 -55q-2 -2 -2 -11v-499q0 -32 -18 -53t-44 -21h-108q-26 0 -44 21t-18 53z" />
<glyph unicode="l" horiz-adv-x="888" d="M102 59v1667q0 25 17.5 42.5t42.5 17.5h112q25 0 42.5 -17.5t17.5 -42.5v-1435q0 -25 17 -42.5t42 -17.5h334q25 0 42 -17t17 -42v-113q0 -25 -17 -42t-42 -17h-565q-25 0 -42.5 17t-17.5 42z" />
<glyph unicode="m" horiz-adv-x="1550" d="M102 74v1638q0 31 18 52.5t44 21.5h141q20 0 37 -13.5t23 -35.5l385 -1258q6 -18 24 -18q22 0 25 18l385 1258q17 49 59 49h143q25 0 43.5 -22t18.5 -52v-1638q0 -32 -18.5 -53t-43.5 -21h-110q-25 0 -43.5 21t-18.5 53v786q0 10 -6 18.5t-14 10.5q-22 4 -29 -19 l-252 -821q-6 -23 -22 -36t-35 -13h-162q-44 0 -57 49l-252 821q-3 10 -11.5 15.5t-17.5 3.5q-22 -3 -22 -29v-786q0 -32 -18.5 -53t-43.5 -21h-108q-26 0 -44 21t-18 53z" />
<glyph unicode="n" horiz-adv-x="1161" d="M102 70v1644q0 29 17.5 50.5t42.5 21.5h157q18 0 33 -11.5t21 -29.5l411 -1043q6 -19 27 -16q16 6 16 29v999q0 29 18.5 50.5t43.5 21.5h110q25 0 42.5 -21.5t17.5 -50.5v-1644q0 -27 -17 -47q-20 -23 -43 -23h-157q-38 0 -54 41l-411 1042q-3 9 -10.5 13.5t-14.5 1.5 q-18 -3 -18 -27v-1001q0 -29 -18 -49.5t-44 -20.5h-110q-25 0 -42.5 20.5t-17.5 49.5z" />
<glyph unicode="o" d="M102 891q0 373 129 610q77 140 189.5 212.5t251.5 72.5t251 -72.5t189 -212.5q129 -237 129 -610q0 -368 -129 -608q-77 -138 -189 -210.5t-251 -72.5t-251.5 72.5t-189.5 210.5q-129 240 -129 608zM334 891q0 -39 2 -82.5t10.5 -112t22 -129t39.5 -126t60 -112t87 -76.5 t117 -30t117 30t87 76.5t60 112t39.5 126t22 129t10.5 112t2 82.5q0 40 -2 84t-10.5 113t-22 130t-39.5 126t-60 112t-87 77t-117 30t-117 -30t-87 -77t-60 -112t-39.5 -126t-22 -130t-10.5 -113t-2 -84z" />
<glyph unicode="p" horiz-adv-x="1030" d="M102 59v1667q0 25 17.5 42.5t42.5 17.5h338q103 0 186 -45.5t134 -119.5t78 -169q29 -97 29 -197q0 -97 -28 -190q-28 -95 -79 -169t-134 -119.5t-186 -45.5h-107q-25 0 -42 -17t-17 -42v-613q0 -25 -17.5 -42t-42.5 -17h-112q-25 0 -42.5 17t-17.5 42zM334 1022 q0 -25 17 -42t42 -17h111q61 0 106.5 44t65.5 109q22 68 22 146q0 75 -20 138q-20 66 -65.5 110t-108.5 44h-111q-25 0 -42 -17t-17 -42v-473z" />
<glyph unicode="q" d="M102 891q0 373 129 610q77 140 189.5 212.5t251.5 72.5t251 -72.5t189 -212.5q129 -237 129 -610q0 -368 -129 -608q-64 -116 -151 -185q10 -30 29.5 -84t27.5 -77q9 -23 -1.5 -46t-33.5 -30l-104 -39q-10 -3 -20 -3q-14 0 -27 5q-22 11 -31 35q-28 80 -53 147 q-38 -6 -76 -6q-140 0 -252.5 72t-188.5 211q-129 240 -129 608zM334 891q0 -38 2 -81.5t10 -111t21.5 -128t39 -125t59 -111.5t85.5 -78t115 -33q-8 23 -22.5 63t-22.5 64q-9 23 1 46t33 32l105 37q23 9 46 -1.5t32 -33.5q6 -17 18 -50.5t18 -49.5q43 56 72.5 138t42 167 t17 144.5t4.5 111.5q0 40 -2 84t-10.5 113t-22 130t-39.5 126t-60 112t-87 77t-117 30t-117 -30t-87 -77t-60 -112t-39.5 -126t-22 -130t-10.5 -113t-2 -84z" />
<glyph unicode="r" horiz-adv-x="1030" d="M102 59v1667q0 25 17.5 42.5t42.5 17.5h338q91 0 167 -36t126.5 -95.5t83.5 -139t44 -165.5q6 -44 6 -88q1 -44 -5 -86q-10 -88 -40 -165.5t-83 -141.5t-123 -99q-10 -4 -14.5 -15.5t0.5 -23.5q58 -161 89.5 -250t145.5 -401q11 -29 -7 -54.5t-50 -25.5h-117 q-43 0 -57 39q-46 127 -242 672q-10 20 -31 20q-25 0 -42 -17t-17 -42v-613q0 -25 -17.5 -42t-42.5 -17h-112q-25 0 -42.5 17t-17.5 42zM334 1022q0 -25 17 -42t42 -17h111q61 0 106 44q46 43 66 109q21 67 22 146q0 74 -20 138q-20 66 -65.5 110t-108.5 44h-111 q-25 0 -42 -17t-17 -42v-473z" />
<glyph unicode="s" horiz-adv-x="931" d="M102 438v54q0 23 13 38t32 15h140q19 0 33 -15t14 -38v-70q0 -172 125 -172q127 0 127 172q0 96 -45 179t-164 200q-150 148 -209 271t-59 276q0 210 92 324t268 114q175 0 266.5 -114.5t91.5 -323.5q0 -25 -13.5 -41.5t-33.5 -16.5h-137q-20 0 -33.5 16.5t-13.5 41.5v16 q0 91 -30.5 132.5t-90.5 41.5q-123 0 -123 -174q0 -96 45 -179t164 -200q151 -150 209.5 -271.5t58.5 -275.5q0 -212 -92.5 -325t-269.5 -113q-179 0 -272 113t-93 325z" />
<glyph unicode="t" horiz-adv-x="1050" d="M102 1614v112q0 25 17.5 42.5t42.5 17.5h725q26 0 43.5 -17.5t17.5 -42.5v-112q0 -25 -17.5 -42.5t-43.5 -17.5h-187q-25 0 -42 -17t-17 -42v-1436q0 -25 -17.5 -42t-43.5 -17h-111q-25 0 -42 17t-17 42v1436q0 25 -17.5 42t-42.5 17h-188q-25 0 -42.5 17.5t-17.5 42.5z " />
<glyph unicode="u" horiz-adv-x="1077" d="M102 436v1290q0 25 17.5 42.5t42.5 17.5h110q26 0 44 -17.5t18 -42.5v-1284q0 -88 61.5 -149.5t149.5 -61.5q83 0 140.5 58t57.5 141v1296q0 25 18.5 42.5t43.5 17.5h110q25 0 42.5 -17.5t17.5 -42.5v-1290q0 -182 -127.5 -309t-308.5 -127q-180 0 -308.5 128t-128.5 308 z" />
<glyph unicode="v" horiz-adv-x="1212" d="M104 1696q-2 9 -2 18q0 24 13 43q19 29 47 29h114q21 0 37.5 -14.5t22.5 -38.5q132 -577 244 -1088q7 -24 26 -24q9 0 16.5 7t8.5 17q198 872 246 1088q6 24 22 38.5t37 14.5h115q28 0 47 -29q12 -20 12 -43q0 -9 -2 -18q-22 -99 -36.5 -162.5t-31 -135.5t-94 -415 t-209.5 -930q-4 -23 -20.5 -38t-36.5 -15h-148q-20 0 -36.5 15t-20.5 38q-207 922 -371 1643z" />
<glyph unicode="w" horiz-adv-x="1689" d="M104 1696q-1 9 -1 17q0 26 14 46q17 27 47 27h110q22 0 38.5 -17t21.5 -43l174 -970q3 -15 16 -15q16 0 19 15l172 970q4 26 21.5 43t39.5 17h135q22 0 40 -17t22 -43q51 -280 174 -970q0 -15 16 -15q14 0 17 15l174 970q5 26 21 43t38 17h111q29 0 49 -27q13 -20 13 -47 q0 -7 -1 -14l-293 -1639q-4 -26 -21.5 -42.5t-39.5 -16.5h-135q-23 0 -40 16.5t-22 42.5l-190 1067l-191 -1067q-5 -26 -21 -42.5t-38 -16.5h-137q-22 0 -39 16.5t-21 42.5z" />
<glyph unicode="x" horiz-adv-x="1136" d="M111 102l327 836q3 6 0 16l-286 729q-6 18 -6 33q0 20 10 35q15 35 49 35h123q39 0 55 -41l170 -434q3 -13 16 -13q12 0 15 13l170 434q16 41 55 41h123q34 0 49 -35q10 -15 10 -35q0 -15 -6 -33l-287 -729q-3 -10 0 -16l328 -836q7 -15 7 -31q0 -20 -11 -40 q-17 -31 -49 -31h-123q-17 0 -32.5 11t-22.5 30l-211 539q-3 12 -15 12q-13 0 -16 -12l-211 -539q-7 -19 -22.5 -30t-32.5 -11h-123q-32 0 -49 31q-11 20 -11 40q0 16 7 31z" />
<glyph unicode="y" horiz-adv-x="1140" d="M109 1706q-5 11 -5 21q0 16 11 32q20 27 49 27h119q41 0 55 -39l217 -594q3 -10 16 -10q14 0 17 10l215 594q14 39 57 39h117q32 0 49 -27q12 -14 12 -32q0 -10 -4 -21l-348 -956v-691q0 -25 -17 -42t-42 -17h-111q-25 0 -43 17t-18 42v691z" />
<glyph unicode="z" horiz-adv-x="999" d="M102 59v158q0 13 7 27l520 1286q6 6 0 16q-3 8 -15 8h-452q-25 0 -42.5 18t-17.5 44v110q0 25 17.5 42.5t42.5 17.5h676q25 0 42 -17.5t17 -42.5v-157q0 -15 -6 -27l-520 -1286q-5 -7 0 -16q6 -9 14 -9h453q25 0 42 -17.5t17 -43.5v-111q0 -25 -17 -42t-42 -17h-676 q-25 0 -42.5 17t-17.5 42z" />
<glyph unicode="{" horiz-adv-x="774" d="M102 799v192q0 16 10 28t27 13q54 9 74 48.5t25 136.5l20 407q10 170 83 255t194 85h100q15 0 26 -12.5t11 -30.5v-186q0 -19 -11 -32t-26 -13q-67 0 -97.5 -46.5t-37.5 -170.5l-11 -308q-8 -169 -92 -233q-17 -15 -17 -37.5t17 -36.5q84 -66 92 -235l11 -308 q7 -124 37.5 -171.5t97.5 -47.5q15 0 26 -12.5t11 -30.5v-186q0 -19 -11 -32t-26 -13h-100q-120 0 -193.5 85.5t-83.5 254.5l-20 409q-5 97 -25 136.5t-74 48.5q-17 1 -27 13t-10 30z" />
<glyph unicode="|" horiz-adv-x="436" d="M102 -109v2003q0 29 17.5 49.5t42.5 20.5h112q25 0 42.5 -20.5t17.5 -49.5v-2003q0 -29 -17.5 -49t-42.5 -20h-112q-25 0 -42.5 20t-17.5 49z" />
<glyph unicode="}" horiz-adv-x="774" d="M102 53q0 19 11 31t28 12q66 0 96.5 48t36.5 171l11 308q8 169 92 235q17 14 17 36.5t-17 37.5q-84 64 -92 233l-11 308q-6 123 -36.5 170t-96.5 47q-17 0 -28 13t-11 32v186q0 19 11 31t28 12h99q121 0 193.5 -85t82.5 -255l21 -407q5 -97 25 -136.5t75 -48.5 q15 -1 25 -13.5t10 -27.5v-192q0 -17 -10 -29t-25 -14q-55 -9 -75 -48.5t-25 -136.5l-21 -409q-10 -169 -83 -254.5t-193 -85.5h-99q-17 0 -28 13t-11 32v186z" />
<glyph unicode="&#xa1;" horiz-adv-x="475" d="M102 61l15 1272q2 25 19 42.5t40 17.5h121q25 0 42 -17.5t17 -42.5l17 -1272q0 -26 -17.5 -43.5t-42.5 -17.5h-151q-25 0 -42.5 17.5t-17.5 43.5zM121 1614v112q0 25 17 42.5t42 17.5h113q25 0 42 -17.5t17 -42.5v-112q0 -25 -17 -42.5t-42 -17.5h-113q-25 0 -42 17.5 t-17 42.5z" />
<glyph unicode="&#xa2;" horiz-adv-x="1339" d="M102 893q0 378 150 620q135 213 352 263v133q0 25 13.5 41t33.5 16h140q19 0 32 -16t13 -41v-125q246 -38 395 -271q8 -13 5 -30.5t-15 -24.5l-148 -102q-26 -11 -41 10q-66 90 -148.5 140t-142.5 50q-43 0 -90 -14t-106 -58.5t-104 -114t-76 -193t-31 -283.5 q0 -115 16.5 -212t42.5 -163.5t62.5 -118.5t73.5 -82.5t77.5 -50t73 -26.5t61.5 -7q60 0 142.5 50t148.5 141q17 23 41 6l148 -100q12 -6 15 -24t-5 -30v-2q-148 -229 -395 -270v-129q0 -23 -13 -39t-32 -16h-140q-20 0 -33.5 16t-13.5 39v137q-220 54 -352 262 q-150 245 -150 619z" />
<glyph unicode="&#xa3;" horiz-adv-x="952" d="M102 61v146q0 22 12 39.5t31 21.5q61 11 104 58.5t58 126.5q6 29 -9 51t-40 22h-74q-22 0 -36.5 18t-14.5 44v92q0 25 14.5 42t36.5 17h23q28 0 42.5 29.5t2.5 58.5q-20 45 -25 54q-58 132 -80 231t-22 223q0 108 31 196t82 142t116.5 83.5t133 30t133 -29t116.5 -83 t82 -142t31 -197.5v-112q0 -26 -14.5 -44t-36.5 -18h-131q-22 0 -37 18t-15 44v129q0 49 -13.5 88t-35 58.5t-47.5 28.5t-52.5 -0.5t-48 -29.5t-35 -58t-13.5 -87q0 -116 19.5 -212t72.5 -222q35 -83 49 -136q5 -19 17.5 -31t29.5 -12h182q21 0 36.5 -17.5t15.5 -41.5v-92 q0 -26 -15.5 -44t-36.5 -18h-159q-19 0 -34 -14.5t-18 -36.5q-9 -69 -28 -113q-14 -31 1 -60.5t44 -29.5h235q22 0 37 -17.5t15 -43.5v-150q0 -26 -15 -43.5t-37 -17.5h-628q-22 0 -37 17.5t-15 43.5z" />
<glyph unicode="&#xa4;" horiz-adv-x="1224" d="M102 687q0 25 19 42l133 135q-49 90 -49 193q0 104 49 194l-133 135q-19 17 -19 42t19 42l78 80q17 17 42 17t42 -17l135 -135q90 49 194 49q103 0 193 -49l135 135q17 17 42 17t42 -17l80 -80q17 -17 17 -42t-17 -42l-135 -135q49 -90 49 -194q0 -103 -49 -193l135 -135 q17 -17 17 -42t-17 -42l-80 -80q-17 -17 -42 -17t-42 17l-135 135q-90 -49 -193 -49q-104 0 -194 49l-135 -135q-17 -17 -42 -17t-42 17l-78 80q-19 17 -19 42zM410 1057q0 -83 59 -142t143 -59q83 0 142 59t59 142q0 85 -59 144t-142 59q-85 0 -143.5 -59t-58.5 -144z" />
<glyph unicode="&#xa5;" horiz-adv-x="1140" d="M109 1706q-12 27 6 53q20 27 49 27h119q41 0 55 -39l217 -594q3 -10 16 -10q14 0 17 10l215 594q14 39 57 39h117q32 0 49 -27q18 -22 8 -53l-301 -825h238q15 0 25 -10t10 -25v-64q0 -15 -10 -24.5t-25 -9.5h-285v-134h285q15 0 25 -9.5t10 -24.5v-64q0 -15 -10 -25 t-25 -10h-285v-422q0 -25 -17 -42t-42 -17h-111q-25 0 -43 17t-18 42v422h-285q-14 0 -24.5 10t-10.5 25v64q0 15 10.5 24.5t24.5 9.5h285v134h-285q-14 0 -24.5 9.5t-10.5 24.5v64q0 15 10.5 25t24.5 10h238z" />
<glyph unicode="&#xa6;" horiz-adv-x="436" d="M102 -119v838q0 25 17.5 42t42.5 17h112q25 0 42.5 -17t17.5 -42v-838q0 -25 -17.5 -42t-42.5 -17h-112q-25 0 -42.5 17t-17.5 42zM102 1069v836q0 25 17.5 42t42.5 17h112q25 0 42.5 -17t17.5 -42v-836q0 -25 -17.5 -42t-42.5 -17h-112q-25 0 -42.5 17t-17.5 42z" />
<glyph unicode="&#xa7;" horiz-adv-x="847" d="M102 119v39q0 16 11.5 27.5t29.5 11.5h119q18 0 29.5 -11.5t11.5 -27.5v-54q0 -124 111 -124q54 0 82 29t28 95q0 70 -39.5 132.5t-142.5 148.5q-132 109 -184 198t-52 201q0 119 52 201t157 109q-111 97 -154.5 180.5t-43.5 187.5q0 157 79 240.5t234 83.5 q153 0 233 -84t80 -240q0 -15 -12 -26t-29 -11h-118q-18 0 -29.5 11t-11.5 26v15q0 67 -27 96t-82 29q-52 0 -78 -29t-26 -96q0 -70 39.5 -131t142.5 -148q131 -111 182 -200t51 -199q0 -125 -52.5 -204.5t-153.5 -105.5q110 -98 154 -182t44 -188q0 -156 -80.5 -240 t-236.5 -84t-237 84t-81 240zM321.5 830.5q-4.5 -38.5 3 -79t25.5 -71.5q26 -18 72 -18q48 0 75.5 25t32.5 61.5t-1.5 75t-22.5 69.5q-23 29 -78 29q-48 0 -75 -26.5t-31.5 -65z" />
<glyph unicode="&#xa8;" horiz-adv-x="761" d="M102 1942v129q0 22 15 36.5t37 14.5h129q22 0 36.5 -14.5t14.5 -36.5v-129q0 -22 -14.5 -37t-36.5 -15h-129q-22 0 -37 15t-15 37zM428 1942v129q0 22 14.5 36.5t36.5 14.5h129q22 0 36.5 -14.5t14.5 -36.5v-129q0 -22 -14.5 -37t-36.5 -15h-129q-22 0 -36.5 15t-14.5 37 z" />
<glyph unicode="&#xa9;" horiz-adv-x="1972" d="M102 893q0 182 70 344q71 164 188 281q121 121 281 190q168 68 344 68q179 0 344 -68q162 -69 283 -190q117 -117 188 -281q70 -162 70 -344t-70 -344q-71 -164 -188 -281q-121 -121 -283 -190q-165 -68 -344 -68q-176 0 -344 68q-160 69 -281 190q-117 117 -188 281 q-70 162 -70 344zM350 893q0 -128 48 -244t139 -207q90 -90 205.5 -138t242.5 -48t244.5 48.5t206.5 137.5q90 90 138 206.5t48 244.5t-47.5 243.5t-138.5 206.5q-90 90 -207 138.5t-244 48.5t-242.5 -48.5t-205.5 -138.5q-91 -91 -139 -206.5t-48 -243.5zM657 891 q0 224 86 360q102 164 285 164t285 -164q4 -8 2 -16.5t-8 -13.5l-86 -60q-16 -8 -23 6q-38 52 -87 80.5t-83 28.5q-25 0 -52.5 -8t-61 -33.5t-59.5 -65.5t-44 -112.5t-18 -165.5q0 -92 18 -163.5t44 -111.5t59.5 -66t61 -34t52.5 -8q34 0 83 29t87 81q3 6 10 8t13 -1l86 -60 q6 -5 8 -13.5t-2 -16.5v-3q-103 -161 -285 -161t-285 161q-86 139 -86 359z" />
<glyph unicode="&#xab;" horiz-adv-x="882" d="M104 754q-3 14 0 26l119 494q4 20 20.5 32.5t37.5 12.5h90q29 0 47 -23t10 -51l-111 -465q-3 -12 0 -26l113 -500q6 -28 -11.5 -50t-45.5 -22h-92q-21 0 -37.5 13t-20.5 34zM451 754q-3 14 0 26l118 494q6 20 22 32.5t38 12.5h90q28 0 45.5 -23t11.5 -51l-110 -465 q-3 -12 0 -26l112 -500q6 -28 -12 -50t-47 -22h-90q-22 0 -38 12.5t-20 34.5z" />
<glyph unicode="&#xad;" horiz-adv-x="688" d="M102 694v113q0 25 17.5 42t42.5 17h364q25 0 42.5 -17t17.5 -42v-113q0 -25 -17.5 -42t-42.5 -17h-364q-25 0 -42.5 17t-17.5 42z" />
<glyph unicode="&#xae;" horiz-adv-x="1972" d="M102 893q0 182 70 344q71 164 188 281q121 121 281 190q168 68 344 68q179 0 344 -68q162 -69 283 -190q117 -117 188 -281q70 -162 70 -344t-70 -344q-71 -164 -188 -281q-121 -121 -283 -190q-165 -68 -344 -68q-176 0 -344 68q-160 69 -281 190q-117 117 -188 281 q-70 162 -70 344zM350 893q0 -128 48 -244t139 -207q90 -90 205.5 -138t242.5 -48t244.5 48.5t206.5 137.5q90 90 138 206.5t48 244.5t-47.5 243.5t-138.5 206.5q-90 90 -207 138.5t-244 48.5t-242.5 -48.5t-205.5 -138.5q-91 -91 -139 -206.5t-48 -243.5zM745 406v974 q0 14 10.5 24.5t24.5 10.5h197q70 0 124.5 -36t83 -92.5t37.5 -126t-3.5 -135t-49 -121.5t-90.5 -83q-11 -6 -8 -22l139 -381q6 -17 -4.5 -32t-29.5 -15h-68q-26 0 -33 24l-141 391q-6 13 -19 13t-23.5 -10.5t-10.5 -24.5v-358q0 -14 -10.5 -24.5t-24.5 -10.5h-66 q-14 0 -24.5 10.5t-10.5 24.5zM881 969q0 -15 10 -25t24 -10h64q43 0 72.5 35.5t36.5 86.5t0.5 102t-36 86.5t-73.5 35.5h-64q-13 0 -23.5 -10.5t-10.5 -24.5v-276z" />
<glyph unicode="&#xb1;" horiz-adv-x="903" d="M102 561v47q0 25 17.5 42.5t42.5 17.5h147q25 0 42.5 17t17.5 42v53q0 25 -17.5 42.5t-42.5 17.5h-147q-25 0 -42.5 17t-17.5 42v49q0 25 17.5 42.5t42.5 17.5h147q25 0 42.5 17t17.5 42v125q0 25 17 42t42 17h47q25 0 42.5 -17t17.5 -42v-125q0 -25 17 -42t42 -17h147 q25 0 42.5 -17.5t17.5 -42.5v-49q0 -25 -17.5 -42t-42.5 -17h-147q-25 0 -42 -17.5t-17 -42.5v-53q0 -25 17 -42t42 -17h147q25 0 42.5 -17.5t17.5 -42.5v-47q0 -25 -17.5 -42t-42.5 -17h-579q-25 0 -42.5 17t-17.5 42z" />
<glyph unicode="&#xb4;" horiz-adv-x="516" d="M106 1954l70 260q5 17 18.5 28t30.5 11h137q28 0 43.5 -24.5t2.5 -49.5l-125 -260q-13 -29 -47 -29h-80q-26 0 -42 20.5t-8 43.5z" />
<glyph unicode="&#xbb;" horiz-adv-x="880" d="M104 254l111 500q3 14 0 26l-111 465q-6 28 12 51t46 23h92q20 0 36.5 -12.5t20.5 -32.5l119 -494q3 -12 0 -26l-119 -525q-4 -22 -20.5 -34.5t-38.5 -12.5h-90q-29 0 -46.5 22t-11.5 50zM451 254l112 500q3 14 0 26l-110 465q-6 28 11 51t46 23h90q22 0 37 -12.5 t20 -32.5l119 -494q3 -12 0 -26l-119 -525q-4 -21 -20 -34t-37 -13h-90q-29 0 -47 22t-12 50z" />
<glyph unicode="&#xbc;" horiz-adv-x="1267" d="M102 1688v63q0 15 10 25t25 10h162q14 0 24.5 -10t10.5 -25v-952q0 -13 -10.5 -23t-24.5 -10h-63q-15 0 -25 9.5t-10 23.5v821q0 14 -10 23.5t-25 9.5h-29q-15 0 -25 10.5t-10 24.5zM109 84l880 1667q15 35 53 35h64q32 0 49.5 -27.5t3.5 -56.5l-880 -1667 q-17 -35 -54 -35h-63q-32 0 -49.5 27.5t-3.5 56.5zM709 350v92q0 3 1 8t1 7l235 542q7 21 31 21h88q14 0 24.5 -10t10.5 -23v-504q0 -14 9 -23t24 -9q13 0 22.5 -10.5t9.5 -24.5v-66q0 -12 -9.5 -22.5t-22.5 -10.5q-15 0 -24 -9t-9 -23v-252q0 -13 -10.5 -23t-24.5 -10h-66 q-13 0 -22.5 9.5t-9.5 23.5v252q0 14 -10 23t-25 9h-191q-12 0 -22 10.5t-10 22.5zM856 496q-6 -17 3 -31t28 -14h45q15 0 25 9t10 23v230q0 5 -9 10q-7 4 -12 -6z" />
<glyph unicode="&#xbd;" horiz-adv-x="1419" d="M102 1688v63q0 15 10 25t25 10h162q14 0 24.5 -10t10.5 -25v-952q0 -13 -10.5 -23t-24.5 -10h-63q-15 0 -25 9.5t-10 23.5v821q0 14 -10 23.5t-25 9.5h-29q-15 0 -25 10.5t-10 24.5zM109 84l880 1667q15 35 53 35h64q32 0 49.5 -27.5t3.5 -56.5l-880 -1667 q-17 -35 -54 -35h-63q-32 0 -49.5 27.5t-3.5 56.5zM840 37v84.5t7 75t23.5 73t48 79t80.5 93.5q93 98 132.5 171.5t39.5 154.5q0 67 -42 99t-86.5 3t-51.5 -110q-2 -14 -12.5 -24.5t-24.5 -10.5h-77q-15 0 -26 11t-11 28q0 62 20.5 112.5t54 81t76.5 47t87.5 16.5t87.5 -17 t76.5 -48t54 -81t20.5 -111q0 -80 -27 -152t-68 -125.5t-83.5 -98.5t-80 -91.5t-50.5 -85.5q-6 -20 3.5 -36.5t28.5 -16.5h224q17 0 26.5 -10.5t9.5 -28.5v-80q0 -18 -9.5 -28.5t-26.5 -10.5h-387q-15 0 -26 11t-11 26z" />
<glyph unicode="&#xbe;" horiz-adv-x="1482" d="M102 934q3 8 11 12l75 43q18 11 29 -4q25 -42 67.5 -66t92.5 -24q78 0 133 55t55 133q0 73 -50 127t-122 60q-18 4 -18 20v113q0 7 4.5 12.5t11.5 5.5q44 6 74.5 39.5t30.5 77.5q0 50 -35 84.5t-84 34.5q-41 0 -73.5 -25.5t-41.5 -64.5q-4 -13 -10 -15q-8 -3 -16 0 l-76 27q-11 5 -16 16t-1 21q24 74 88.5 122t145.5 48q103 0 174.5 -72.5t71.5 -175.5q0 -96 -66 -168q-4 -4 -4 -14q0 -12 8 -15q62 -45 97.5 -112.5t35.5 -145.5q0 -132 -92.5 -224.5t-224.5 -92.5q-85 0 -157.5 41.5t-115.5 112.5q-2 4 -2 14zM324 84l880 1667 q15 35 53 35h64q32 0 49.5 -27.5t3.5 -56.5l-880 -1667q-18 -35 -54 -35h-63q-32 0 -49.5 27.5t-3.5 56.5zM924 350v92q0 3 1 8t1 7l235 542q7 21 29 21h90q14 0 23.5 -10t9.5 -23v-504q0 -13 9.5 -22.5t23.5 -9.5t23 -10.5t9 -24.5v-66q0 -13 -9 -23t-23 -10t-23.5 -9.5 t-9.5 -22.5v-252q0 -13 -9.5 -23t-23.5 -10h-66q-13 0 -22.5 9.5t-9.5 23.5v252q0 13 -10.5 22.5t-24.5 9.5h-191q-12 0 -22 10.5t-10 22.5zM1071 496q-6 -17 3 -31t28 -14h45q14 0 24.5 9.5t10.5 22.5v230q0 6 -8 10t-13 -6z" />
<glyph unicode="&#xbf;" horiz-adv-x="921" d="M102 436q0 144 31 253t119 233q82 117 103.5 180.5t21.5 159.5v135q0 31 17 52t42 21h113q25 0 42 -21.5t17 -53.5v-133q2 -76 -11.5 -142t-37.5 -116t-53 -97t-59 -96t-55 -103t-40.5 -128t-15.5 -160q0 -59 22 -102.5t54.5 -58.5t66.5 -11t62.5 38.5t38.5 90.5 q4 26 20.5 41.5t38.5 15.5h119q28 0 45 -24q17 -26 14 -62q-13 -89 -51 -159.5t-90.5 -112.5t-115.5 -61.5t-126.5 -14t-123.5 36.5t-106 83t-74 134t-28 182zM377 1614v112q0 25 17 42.5t42 17.5h113q25 0 42 -17.5t17 -42.5v-112q0 -25 -17 -42.5t-42 -17.5h-113 q-25 0 -42 17.5t-17 42.5z" />
<glyph unicode="&#xc0;" horiz-adv-x="1216" d="M106 90q-7 -35 11 -62.5t47 -27.5h117q20 0 35.5 14.5t21.5 38.5q26 112 47 213q6 24 22 38.5t37 14.5h328q21 0 37 -14.5t22 -38.5q14 -63 29.5 -130.5t18.5 -82.5q6 -24 21.5 -38.5t35.5 -14.5h117q29 0 46.5 27.5t10.5 62.5q-22 99 -36.5 162.5t-31 135.5t-94 415 t-209.5 930q-4 23 -20.5 38t-36.5 15h-147q-20 0 -37 -15t-21 -38q-207 -922 -371 -1643zM387 2159q-12 25 2.5 49t42.5 24h137q17 0 30.5 -11t18.5 -28l72 -260q6 -23 -9 -43t-40 -20h-82q-33 0 -45 28zM479 684q14 57 38 163.5t34 149.5q7 33 32 46.5t50.5 0t32.5 -46.5 q70 -309 71 -313q8 -34 -10 -62t-47 -28h-143q-29 0 -47 28t-11 62z" />
<glyph unicode="&#xc1;" horiz-adv-x="1216" d="M106 90q164 721 371 1643q4 23 21 38t37 15h147q20 0 36.5 -15t20.5 -38q132 -587 209.5 -930t94 -415t31 -135.5t36.5 -162.5q7 -35 -10.5 -62.5t-46.5 -27.5h-117q-20 0 -35.5 14.5t-21.5 38.5q-3 15 -18.5 82.5t-29.5 130.5q-6 24 -22 38.5t-37 14.5h-328 q-21 0 -37 -14.5t-22 -38.5q-21 -101 -47 -213q-6 -24 -21.5 -38.5t-35.5 -14.5h-117q-29 0 -47 27.5t-11 62.5zM479 684q-7 -34 11 -62t47 -28h143q29 0 47 28t10 62q-1 4 -71 313q-7 33 -32.5 46.5t-50.5 0t-32 -46.5q-10 -43 -34 -149.5t-38 -163.5zM524 1954l70 260 q5 17 18.5 28t30.5 11h137q28 0 43 -24.5t2 -49.5l-125 -260q-13 -29 -47 -29h-80q-26 0 -41.5 20.5t-7.5 43.5z" />
<glyph unicode="&#xc2;" horiz-adv-x="1216" d="M106 90q-7 -35 11 -62.5t47 -27.5h117q20 0 35.5 14.5t21.5 38.5q26 112 47 213q6 24 22 38.5t37 14.5h328q21 0 37 -14.5t22 -38.5q14 -63 29.5 -130.5t18.5 -82.5q6 -24 21.5 -38.5t35.5 -14.5h117q29 0 46.5 27.5t10.5 62.5q-22 99 -36.5 162.5t-31 135.5t-94 415 t-209.5 930q-4 23 -20.5 38t-36.5 15h-147q-20 0 -37 -15t-21 -38q-207 -922 -371 -1643zM365 1962l120 260q14 31 47 31h152q33 0 47 -31l121 -260q12 -25 -2.5 -48.5t-42.5 -23.5h-107q-30 0 -45 29q-13 31 -47 31t-47 -31q-15 -29 -45 -29h-106q-28 0 -42.5 23.5 t-2.5 48.5zM479 684q14 57 38 163.5t34 149.5q7 33 32 46.5t50.5 0t32.5 -46.5q70 -309 71 -313q8 -34 -10 -62t-47 -28h-143q-29 0 -47 28t-11 62z" />
<glyph unicode="&#xc3;" horiz-adv-x="1216" d="M106 90q164 721 371 1643q4 23 21 38t37 15h147q20 0 36.5 -15t20.5 -38q132 -587 209.5 -930t94 -415t31 -135.5t36.5 -162.5q7 -35 -10.5 -62.5t-46.5 -27.5h-117q-20 0 -35.5 14.5t-21.5 38.5q-3 15 -18.5 82.5t-29.5 130.5q-6 24 -22 38.5t-37 14.5h-328 q-21 0 -37 -14.5t-22 -38.5q-21 -101 -47 -213q-6 -24 -21.5 -38.5t-35.5 -14.5h-117q-29 0 -47 27.5t-11 62.5zM339 1979.5q-2 18.5 9 33.5q47 67 91.5 91.5t81 14t67 -31t64 -42.5t57.5 -22q17 0 29.5 8t31.5 31q13 20 38 21.5t40 -17.5l8 -8q12 -13 12.5 -31.5 t-8.5 -31.5q-41 -59 -79 -83.5t-84.5 -17.5t-106.5 50q-60 44 -91 44.5t-63 -40.5q-15 -20 -39 -21.5t-39 17.5l-4 4q-13 13 -15 31.5zM479 684q-7 -34 11 -62t47 -28h143q29 0 47 28t10 62q-1 4 -71 313q-7 33 -32.5 46.5t-50.5 0t-32 -46.5q-10 -43 -34 -149.5t-38 -163.5 z" />
<glyph unicode="&#xc4;" horiz-adv-x="1216" d="M106 90q-7 -35 11 -62.5t47 -27.5h117q20 0 35.5 14.5t21.5 38.5q26 112 47 213q6 24 22 38.5t37 14.5h328q21 0 37 -14.5t22 -38.5q14 -63 29.5 -130.5t18.5 -82.5q6 -24 21.5 -38.5t35.5 -14.5h117q29 0 46.5 27.5t10.5 62.5q-22 99 -36.5 162.5t-31 135.5t-94 415 t-209.5 930q-4 23 -20.5 38t-36.5 15h-147q-20 0 -37 -15t-21 -38q-207 -922 -371 -1643zM332 1942v129q0 22 14.5 36.5t36.5 14.5h129q22 0 36.5 -14.5t14.5 -36.5v-129q0 -22 -14.5 -37t-36.5 -15h-129q-22 0 -36.5 15t-14.5 37zM479 684q14 57 38 163.5t34 149.5 q7 33 32 46.5t50.5 0t32.5 -46.5q70 -309 71 -313q8 -34 -10 -62t-47 -28h-143q-29 0 -47 28t-11 62zM657 1942v129q0 22 15 36.5t37 14.5h129q22 0 36.5 -14.5t14.5 -36.5v-129q0 -22 -14.5 -37t-36.5 -15h-129q-22 0 -37 15t-15 37z" />
<glyph unicode="&#xc5;" horiz-adv-x="1216" d="M106 90q164 721 371 1643q4 23 21 38t37 15h147q20 0 36.5 -15t20.5 -38q132 -587 209.5 -930t94 -415t31 -135.5t36.5 -162.5q7 -35 -10.5 -62.5t-46.5 -27.5h-117q-20 0 -35.5 14.5t-21.5 38.5q-3 15 -18.5 82.5t-29.5 130.5q-6 24 -22 38.5t-37 14.5h-328 q-21 0 -37 -14.5t-22 -38.5q-21 -101 -47 -213q-6 -24 -21.5 -38.5t-35.5 -14.5h-117q-29 0 -47 27.5t-11 62.5zM426 2071q0 75 52.5 128.5t127.5 53.5t128.5 -53.5t53.5 -128.5q0 -74 -53.5 -127.5t-128.5 -53.5t-127.5 53.5t-52.5 127.5zM479 684q-7 -34 11 -62t47 -28 h143q29 0 47 28t10 62q-1 4 -71 313q-7 33 -32.5 46.5t-50.5 0t-32 -46.5q-10 -43 -34 -149.5t-38 -163.5zM526 2071q0 -32 24 -55t56 -23t56 23t24 55q0 33 -23.5 56t-56.5 23t-56.5 -23t-23.5 -56z" />
<glyph unicode="&#xc6;" horiz-adv-x="1447" d="M106 90q164 721 371 1643q4 23 21 38t37 15h751q25 0 42.5 -17.5t17.5 -42.5v-112q0 -25 -17.5 -42.5t-42.5 -17.5h-387q-25 0 -42 -17t-17 -42v-254q0 -25 17 -42t42 -17h256q26 0 44 -17.5t18 -42.5v-110q0 -25 -18 -43.5t-44 -18.5h-240h-16q-25 0 -42 -17t-17 -42 v-600q0 -25 17 -42.5t42 -17.5h387q25 0 42.5 -17t17.5 -42v-113q0 -25 -17.5 -42t-42.5 -17h-618q-25 0 -42.5 17t-17.5 42v260h-164q-21 0 -37 -14.5t-22 -38.5q-21 -101 -47 -213q-6 -24 -21.5 -38.5t-35.5 -14.5h-117q-29 0 -47 27.5t-11 62.5zM479 684q-7 -34 11 -62 t47 -28h71v455q-20 0 -35.5 -13.5t-21.5 -38.5q-10 -43 -34 -149.5t-38 -163.5z" />
<glyph unicode="&#xc7;" horiz-adv-x="1335" d="M102 891q0 377 150 616q174 279 487 279q311 0 488 -279q8 -12 5 -29t-15 -24l-146 -102q-26 -11 -41 10q-66 90 -148.5 140t-142.5 50q-43 0 -90 -14t-105.5 -58.5t-103 -113.5t-75.5 -192.5t-31 -282.5q0 -115 16 -212t42.5 -163.5t62.5 -118.5t73 -82.5t77.5 -50 t72.5 -26.5t61 -7q61 0 143 50t148 143q17 20 41 6l146 -100q12 -6 15 -25t-5 -29v-2q-149 -237 -406 -272h-4q-4 0 -12 -1t-12 -1q9 -40 -12 -75.5t-72 -71.5q-12 -9 -28.5 -8t-25.5 12l-10 6q-12 13 -11.5 34t15.5 33q35 26 35 50q0 8 -4 20q-275 28 -428 274 q-150 242 -150 617z" />
<glyph unicode="&#xc8;" horiz-adv-x="942" d="M102 59q0 -25 17.5 -42t42.5 -17h618q25 0 42.5 17t17.5 42v113q0 25 -17.5 42t-42.5 17h-387q-25 0 -42 17.5t-17 42.5v731q0 25 17 42t42 17h256q26 0 44 18.5t18 43.5v110q0 25 -18 42.5t-44 17.5h-256q-25 0 -42 17t-17 42v123q0 25 17 42t42 17h387q25 0 42.5 17.5 t17.5 42.5v112q0 25 -17.5 42.5t-42.5 17.5h-618q-25 0 -42.5 -17.5t-17.5 -42.5v-1667zM264 2179q-12 25 2.5 49.5t42.5 24.5h137q17 0 31.5 -11t18.5 -28l71 -260q6 -23 -9 -43.5t-40 -20.5h-82q-32 0 -45 29z" />
<glyph unicode="&#xc9;" horiz-adv-x="942" d="M102 59v1667q0 25 17.5 42.5t42.5 17.5h618q25 0 42.5 -17.5t17.5 -42.5v-112q0 -25 -17.5 -42.5t-42.5 -17.5h-387q-25 0 -42 -17t-17 -42v-123q0 -25 17 -42t42 -17h256q26 0 44 -17.5t18 -42.5v-110q0 -25 -18 -43.5t-44 -18.5h-256q-25 0 -42 -17t-17 -42v-731 q0 -25 17 -42.5t42 -17.5h387q25 0 42.5 -17t17.5 -42v-113q0 -25 -17.5 -42t-42.5 -17h-618q-25 0 -42.5 17t-17.5 42zM381 1954l70 260q5 17 18.5 28t30.5 11h137q28 0 43 -24.5t2 -49.5l-125 -260q-13 -29 -47 -29h-80q-26 0 -41.5 20.5t-7.5 43.5z" />
<glyph unicode="&#xca;" horiz-adv-x="942" d="M102 59q0 -25 17.5 -42t42.5 -17h618q25 0 42.5 17t17.5 42v113q0 25 -17.5 42t-42.5 17h-387q-25 0 -42 17.5t-17 42.5v731q0 25 17 42t42 17h256q26 0 44 18.5t18 43.5v110q0 25 -18 42.5t-44 17.5h-256q-25 0 -42 17t-17 42v123q0 25 17 42t42 17h387q25 0 42.5 17.5 t17.5 42.5v112q0 25 -17.5 42.5t-42.5 17.5h-618q-25 0 -42.5 -17.5t-17.5 -42.5v-1667zM225 1962l121 260q14 31 47 31h152q33 0 47 -31l121 -260q12 -25 -2.5 -48.5t-42.5 -23.5h-107q-13 0 -26 8.5t-19 20.5q-14 31 -47 31t-47 -31q-6 -12 -19 -20.5t-26 -8.5h-107 q-28 0 -42.5 23.5t-2.5 48.5z" />
<glyph unicode="&#xcb;" horiz-adv-x="942" d="M102 59q0 -25 17.5 -42t42.5 -17h618q25 0 42.5 17t17.5 42v113q0 25 -17.5 42t-42.5 17h-387q-25 0 -42 17.5t-17 42.5v731q0 25 17 42t42 17h256q26 0 44 18.5t18 43.5v110q0 25 -18 42.5t-44 17.5h-256q-25 0 -42 17t-17 42v123q0 25 17 42t42 17h387q25 0 42.5 17.5 t17.5 42.5v112q0 25 -17.5 42.5t-42.5 17.5h-618q-25 0 -42.5 -17.5t-17.5 -42.5v-1667zM188 1942v129q0 22 15 36.5t37 14.5h129q22 0 36.5 -14.5t14.5 -36.5v-129q0 -22 -14.5 -37t-36.5 -15h-129q-22 0 -37 15t-15 37zM514 1942v129q0 22 14.5 36.5t36.5 14.5h129 q22 0 36.5 -14.5t14.5 -36.5v-129q0 -22 -14.5 -37t-36.5 -15h-129q-22 0 -36.5 15t-14.5 37z" />
<glyph unicode="&#xcc;" horiz-adv-x="542" d="M109 2179q-12 25 2.5 49.5t42.5 24.5h137q17 0 30.5 -11t18.5 -28l72 -260q6 -23 -9.5 -43.5t-40.5 -20.5h-81q-32 0 -45 29zM209 59q0 -25 17 -42t42 -17h113q25 0 42 17t17 42v1667q0 25 -17 42.5t-42 17.5h-113q-25 0 -42 -17.5t-17 -42.5v-1667z" />
<glyph unicode="&#xcd;" horiz-adv-x="536" d="M102 59v1667q0 25 17.5 42.5t42.5 17.5h112q25 0 42.5 -17.5t17.5 -42.5v-1667q0 -25 -17.5 -42t-42.5 -17h-112q-25 0 -42.5 17t-17.5 42zM127 1954l70 260q5 17 18.5 28t30.5 11h137q28 0 43 -24.5t2 -49.5l-125 -260q-13 -29 -47 -29h-80q-26 0 -41.5 20.5t-7.5 43.5z " />
<glyph unicode="&#xce;" horiz-adv-x="704" d="M109 1962l120 260q14 31 47 31h152q33 0 47 -31l121 -260q12 -25 -2.5 -48.5t-42.5 -23.5h-107q-30 0 -45 29q-14 31 -47.5 31t-46.5 -31q-15 -29 -45 -29h-106q-28 0 -42.5 23.5t-2.5 48.5zM238 59q0 -25 17 -42t42 -17h113q25 0 42 17t17 42v1667q0 25 -17 42.5 t-42 17.5h-113q-25 0 -42 -17.5t-17 -42.5v-1667z" />
<glyph unicode="&#xcf;" horiz-adv-x="761" d="M102 1942v129q0 22 15 36.5t37 14.5h129q22 0 36.5 -14.5t14.5 -36.5v-129q0 -22 -14.5 -37t-36.5 -15h-129q-22 0 -37 15t-15 37zM264 59q0 -25 17.5 -42t42.5 -17h112q25 0 42.5 17t17.5 42v1667q0 25 -17.5 42.5t-42.5 17.5h-112q-25 0 -42.5 -17.5t-17.5 -42.5v-1667 zM428 1942v129q0 22 14.5 36.5t36.5 14.5h129q22 0 36.5 -14.5t14.5 -36.5v-129q0 -22 -14.5 -37t-36.5 -15h-129q-22 0 -36.5 15t-14.5 37z" />
<glyph unicode="&#xd0;" horiz-adv-x="1284" d="M102 836v112q0 25 17.5 42.5t42.5 17.5h69v706q0 29 17.5 50.5t42.5 21.5h172q216 0 381.5 -120.5t251.5 -322t86 -448.5q0 -185 -50.5 -348t-142 -284.5t-227.5 -192t-299 -70.5h-172q-25 0 -42.5 20.5t-17.5 49.5v706h-69q-25 0 -42.5 17.5t-17.5 42.5zM463 350 q0 -32 19.5 -52.5t47.5 -16.5q128 19 221 106t138 217.5t45 290.5q0 159 -45 289t-138 217t-221 106q-27 4 -47 -17t-20 -52v-430h69q25 0 42.5 -17.5t17.5 -42.5v-112q0 -25 -17.5 -42.5t-42.5 -17.5h-69v-426z" />
<glyph unicode="&#xd1;" horiz-adv-x="1161" d="M102 70v1644q0 29 17.5 50.5t42.5 21.5h157q18 0 33 -11.5t21 -29.5l411 -1043q6 -19 27 -16q16 6 16 29v999q0 29 18.5 50.5t43.5 21.5h110q25 0 42.5 -21.5t17.5 -50.5v-1644q0 -27 -17 -47q-20 -23 -43 -23h-157q-38 0 -54 41l-411 1042q-3 9 -10.5 13.5t-14.5 1.5 q-18 -3 -18 -27v-1001q0 -29 -18 -49.5t-44 -20.5h-110q-25 0 -42.5 20.5t-17.5 49.5zM317 1979.5q-2 18.5 9 33.5q47 67 91.5 91.5t81 14t67 -31t63.5 -42.5t57 -22q31 0 62 39q13 20 37.5 21.5t39.5 -17.5l9 -8q12 -13 12.5 -31.5t-8.5 -31.5q-41 -59 -79.5 -83.5 t-85 -17.5t-106.5 50q-60 44 -90.5 44.5t-62.5 -40.5q-15 -20 -39 -21.5t-39 17.5l-4 4q-13 13 -15 31.5z" />
<glyph unicode="&#xd2;" d="M102 891q0 -368 129 -608q77 -138 189.5 -210.5t251.5 -72.5t251 72.5t189 210.5q129 240 129 608q0 373 -129 610q-77 140 -189 212.5t-251 72.5t-251.5 -72.5t-189.5 -212.5q-129 -237 -129 -610zM334 891q0 40 2 84t10.5 113t22 130t39.5 126t60 112t87 77t117 30 t117 -30t87 -77t60 -112t39.5 -126t22 -130t10.5 -113t2 -84q0 -39 -2 -82.5t-10.5 -112t-22 -129t-39.5 -126t-60 -112t-87 -76.5t-117 -30t-117 30t-87 76.5t-60 112t-39.5 126t-22 129t-10.5 112t-2 82.5zM457 2179q-12 25 2.5 49.5t42.5 24.5h137q17 0 30.5 -11 t18.5 -28l72 -260q6 -23 -9 -43.5t-40 -20.5h-82q-32 0 -45 29z" />
<glyph unicode="&#xd3;" d="M102 891q0 373 129 610q77 140 189.5 212.5t251.5 72.5t251 -72.5t189 -212.5q129 -237 129 -610q0 -368 -129 -608q-77 -138 -189 -210.5t-251 -72.5t-251.5 72.5t-189.5 210.5q-129 240 -129 608zM334 891q0 -39 2 -82.5t10.5 -112t22 -129t39.5 -126t60 -112t87 -76.5 t117 -30t117 30t87 76.5t60 112t39.5 126t22 129t10.5 112t2 82.5q0 40 -2 84t-10.5 113t-22 130t-39.5 126t-60 112t-87 77t-117 30t-117 -30t-87 -77t-60 -112t-39.5 -126t-22 -130t-10.5 -113t-2 -84zM580 1954l69 260q5 17 18.5 28t30.5 11h138q28 0 43 -24.5t2 -49.5 l-125 -260q-13 -29 -47 -29h-80q-26 0 -41.5 20.5t-7.5 43.5z" />
<glyph unicode="&#xd4;" d="M102 891q0 -368 129 -608q77 -138 189.5 -210.5t251.5 -72.5t251 72.5t189 210.5q129 240 129 608q0 373 -129 610q-77 140 -189 212.5t-251 72.5t-251.5 -72.5t-189.5 -212.5q-129 -237 -129 -610zM334 891q0 40 2 84t10.5 113t22 130t39.5 126t60 112t87 77t117 30 t117 -30t87 -77t60 -112t39.5 -126t22 -130t10.5 -113t2 -84q0 -39 -2 -82.5t-10.5 -112t-22 -129t-39.5 -126t-60 -112t-87 -76.5t-117 -30t-117 30t-87 76.5t-60 112t-39.5 126t-22 129t-10.5 112t-2 82.5zM424 1962l121 260q14 31 47 31h151q34 0 48 -31l120 -260 q12 -25 -2.5 -48.5t-42.5 -23.5h-106q-30 0 -45 29q-13 31 -47 31t-47 -31q-15 -29 -46 -29h-106q-28 0 -42.5 23.5t-2.5 48.5z" />
<glyph unicode="&#xd5;" d="M102 891q0 373 129 610q77 140 189.5 212.5t251.5 72.5t251 -72.5t189 -212.5q129 -237 129 -610q0 -368 -129 -608q-77 -138 -189 -210.5t-251 -72.5t-251.5 72.5t-189.5 210.5q-129 240 -129 608zM334 891q0 -39 2 -82.5t10.5 -112t22 -129t39.5 -126t60 -112t87 -76.5 t117 -30t117 30t87 76.5t60 112t39.5 126t22 129t10.5 112t2 82.5q0 40 -2 84t-10.5 113t-22 130t-39.5 126t-60 112t-87 77t-117 30t-117 -30t-87 -77t-60 -112t-39.5 -126t-22 -130t-10.5 -113t-2 -84zM421 1979.5q-2 18.5 9 33.5q47 67 91.5 91.5t81 14t67 -31t64 -42.5 t57.5 -22q17 0 29.5 8t31.5 31q13 20 38 21.5t40 -17.5l8 -8q12 -13 12.5 -31.5t-8.5 -31.5q-41 -59 -79 -83.5t-84.5 -17.5t-106.5 50q-60 44 -91 44.5t-63 -40.5q-15 -20 -39 -21.5t-39 17.5l-4 4q-13 13 -15 31.5z" />
<glyph unicode="&#xd6;" d="M102 891q0 -368 129 -608q77 -138 189.5 -210.5t251.5 -72.5t251 72.5t189 210.5q129 240 129 608q0 373 -129 610q-77 140 -189 212.5t-251 72.5t-251.5 -72.5t-189.5 -212.5q-129 -237 -129 -610zM334 891q0 40 2 84t10.5 113t22 130t39.5 126t60 112t87 77t117 30 t117 -30t87 -77t60 -112t39.5 -126t22 -130t10.5 -113t2 -84q0 -39 -2 -82.5t-10.5 -112t-22 -129t-39.5 -126t-60 -112t-87 -76.5t-117 -30t-117 30t-87 76.5t-60 112t-39.5 126t-22 129t-10.5 112t-2 82.5zM387 1942v129q0 22 14.5 36.5t36.5 14.5h129q22 0 36.5 -14.5 t14.5 -36.5v-129q0 -22 -14.5 -37t-36.5 -15h-129q-22 0 -36.5 15t-14.5 37zM713 1942v129q0 22 14.5 36.5t36.5 14.5h129q22 0 36.5 -14.5t14.5 -36.5v-129q0 -22 -14.5 -37t-36.5 -15h-129q-22 0 -36.5 15t-14.5 37z" />
<glyph unicode="&#xd7;" horiz-adv-x="841" d="M104 830q0 25 17 42l143 144q19 17 19 42t-19 42l-141 141q-17 17 -17 42t17 42l31 31q17 17 42 17t42 -17l143 -144q17 -17 42 -17t42 17l143 144q17 19 42 19t42 -19l29 -29q19 -17 19 -42t-19 -42l-143 -143q-17 -17 -17 -42t17 -42l143 -144q19 -17 19 -42t-19 -42 l-29 -28q-17 -19 -42 -19t-42 19l-143 143q-17 17 -42 17t-42 -17l-145 -145q-17 -17 -42 -17t-42 17l-31 30q-17 17 -17 42z" />
<glyph unicode="&#xd8;" d="M102 891q0 373 129 610q77 140 189.5 212.5t251.5 72.5q141 0 256 -74l18 39q18 35 53 35h125q32 0 49.5 -27.5t4.5 -56.5l-82 -174q8 -10 16 -27q129 -237 129 -610q0 -368 -129 -608q-77 -138 -189 -210.5t-251 -72.5q-141 0 -256 74l-19 -39q-15 -35 -53 -35h-125 q-32 0 -49.5 27.5t-3.5 56.5l82 172q-13 18 -17 27q-129 240 -129 608zM334 891q0 -194 43 -356l452 968q-66 60 -157 60q-64 0 -117 -30t-87 -77t-60 -112t-39.5 -126t-22 -130t-10.5 -113t-2 -84zM514 283q66 -60 158 -60q64 0 117 30t87 76.5t60 112t39.5 126t22 129 t10.5 112t2 82.5q0 205 -43 360z" />
<glyph unicode="&#xd9;" horiz-adv-x="1077" d="M102 436q0 -180 128.5 -308t308.5 -128q181 0 308.5 127t127.5 309v1290q0 25 -17.5 42.5t-42.5 17.5h-110q-25 0 -43.5 -17.5t-18.5 -42.5v-1296q0 -83 -57.5 -141t-140.5 -58q-88 0 -149.5 61.5t-61.5 149.5v1284q0 25 -18 42.5t-44 17.5h-110q-25 0 -42.5 -17.5 t-17.5 -42.5v-1290zM326 2179q-12 25 2.5 49.5t42.5 24.5h137q17 0 30.5 -11t18.5 -28l72 -260q6 -23 -9 -43.5t-40 -20.5h-82q-32 0 -45 29z" />
<glyph unicode="&#xda;" horiz-adv-x="1077" d="M102 436v1290q0 25 17.5 42.5t42.5 17.5h110q26 0 44 -17.5t18 -42.5v-1284q0 -88 61.5 -149.5t149.5 -61.5q83 0 140.5 58t57.5 141v1296q0 25 18.5 42.5t43.5 17.5h110q25 0 42.5 -17.5t17.5 -42.5v-1290q0 -182 -127.5 -309t-308.5 -127q-180 0 -308.5 128t-128.5 308 zM449 1954l69 260q5 17 18.5 28t30.5 11h138q28 0 43 -24.5t2 -49.5l-125 -260q-13 -29 -47 -29h-80q-26 0 -41.5 20.5t-7.5 43.5z" />
<glyph unicode="&#xdb;" horiz-adv-x="1077" d="M102 436q0 -180 128.5 -308t308.5 -128q181 0 308.5 127t127.5 309v1290q0 25 -17.5 42.5t-42.5 17.5h-110q-25 0 -43.5 -17.5t-18.5 -42.5v-1296q0 -83 -57.5 -141t-140.5 -58q-88 0 -149.5 61.5t-61.5 149.5v1284q0 25 -18 42.5t-44 17.5h-110q-25 0 -42.5 -17.5 t-17.5 -42.5v-1290zM291 1962l121 260q14 31 47 31h151q33 0 47 -31l121 -260q12 -25 -2.5 -48.5t-42.5 -23.5h-106q-13 0 -26 8.5t-19 20.5q-14 31 -47.5 31t-47.5 -31q-15 -29 -45 -29h-106q-28 0 -42.5 23.5t-2.5 48.5z" />
<glyph unicode="&#xdc;" horiz-adv-x="1077" d="M102 436q0 -180 128.5 -308t308.5 -128q181 0 308.5 127t127.5 309v1290q0 25 -17.5 42.5t-42.5 17.5h-110q-25 0 -43.5 -17.5t-18.5 -42.5v-1296q0 -83 -57.5 -141t-140.5 -58q-88 0 -149.5 61.5t-61.5 149.5v1284q0 25 -18 42.5t-44 17.5h-110q-25 0 -42.5 -17.5 t-17.5 -42.5v-1290zM256 1942v129q0 22 14.5 36.5t36.5 14.5h129q22 0 36.5 -14.5t14.5 -36.5v-129q0 -22 -14.5 -37t-36.5 -15h-129q-22 0 -36.5 15t-14.5 37zM582 1942v129q0 22 14.5 36.5t36.5 14.5h129q22 0 36.5 -14.5t14.5 -36.5v-129q0 -22 -14.5 -37t-36.5 -15h-129 q-22 0 -36.5 15t-14.5 37z" />
<glyph unicode="&#xdd;" horiz-adv-x="1140" d="M109 1706q-12 27 6 53q20 27 49 27h119q41 0 55 -39l217 -594q3 -10 16 -10q14 0 17 10l215 594q14 39 57 39h117q32 0 49 -27q18 -22 8 -53l-348 -956v-691q0 -25 -17 -42t-42 -17h-111q-25 0 -43 17t-18 42v691zM479 1954l70 260q5 17 18.5 28t30.5 11h137 q28 0 43 -24.5t2 -49.5l-125 -260q-13 -29 -47 -29h-80q-26 0 -41.5 20.5t-7.5 43.5z" />
<glyph unicode="&#xde;" horiz-adv-x="1030" d="M102 56v1v1v1v1v1v1v1v1v1v1v1v1v1v1v1v1v1v1v1v1v1v1v1v1v1v1v1v1v1v1v1v1v1v1v1v1v1v1v1v1v1v1v1v1v1v1v1v1v1v1v1v1v1v1v1v1v1v1v1v1v1v1v1v1v1v1v1v1v1v1v1v1v1v1v1v1v1v1v1v1v1v1v1v1v1v1v1v1v1v1v1v1v1v1v1v1v1v1v1v1v1v1v1v1v1v1v1v1v1v1v1v1v1v1v1v1v1v1v1v1v1v1 v1v1v1v1v1v1v1v1v1v1v1v1v1v1v1v1v1v1v1v1v1v1v1v1v1v1v1v1v1v1v1v1v1v1v1v1v1v1v1v1v1v1v1v1v1v1v1v1v1v1v1v1v1v1v1v1v1v1v1v1v1v1v1v1v1v1v1v1v1v1v1v1v1v1v1v1v1v1v1v1v1v1v1v1v1v1v1v1v1v1v1v1v1v1v1v1v1v1v1v1v1v1v1v1v1v1v1v1v1v1v1v1v1v1v1v1v1v1v1v1v1v1v1v1v1v1v1 v1v1v1v1v1v1v1v1v1v1v1v1v1v1v1v1v1v1v1v1v1v1v1v1v1v1v1v1v1v1v1v1v1v1v1v1v1v1v1v1v1v1v1v1v1v1v1v1v1v1v1v1v1v1v1v1v1v1v1v1v1v1v1v1v1v1v1v1v1v1v1v1v1v1v1v1v1v1v1v1v1v1v1v1v1v1v1v2v1v1v1v1v1v1v1v1v1v1v1v1v1v1v1v1v1v1v1v2v1v1v1v1v1v1v1v1v1v1v1v1v1v2v1v1v1v1v1 v1v1v1v1v1v1v2v1v1v1v1v1v1v1v1v1v1v2v1v1v1v1v1v1v1v1v2v1v1v1v1v1v1v1v1v2v1v1v1v1v1v1v1v2v1v1v1v1v1v1v2v1v1v1v1v1v1v1v2v1v1v1v1v1v2v1v1v1v1v1v1v2v1v1v1v1v1v2v1v1v1v1v1v2v1v1v1v1v1v2v1v1v1v1v1v2v1v1v1v1v1v2v1v1v1v1v2v1v1v1v1v2v1v1v1v1v2v1v1v1v1v2v1v1v1v1v2 v1v1v1v1v2v1v1v1v1v2v1v1v1v2v1v1v1v1v2v1v1v1v2v1v1v1v1v2v1v1v1v2v1v1v1v2v1v1v1v2v1v1v1v1v2v1v1v1v2v1v1v1v2v1v1v1v2v1v1v2v1v1v1v2v1v1v1v2v1v1v1v2v1v1v1v2v1v1v2v1v1v1v2v1v1v2v1v1v1v2v1v1v1v2v1v1v2v1v1v1v2v1v1v2v1v1v2v1v1v1v2v1v1v2v1v1v2v1v1v1v2v1v1v2v1v1v2 v1v1v2v1v1v2v1v1v1v2v1v1v2v1v1v2v1v1v2v1v1v2v1v1v2v1v1v2v1v1v2v1v1v2v1v1v2v1v1v2v1v1v2v1v1v2v1v1v2v1v1v2v1v2v1v1v2v1v1v2v1v1v2v1v1v2v1v2v1v1v2v1v1v2v1v1v2v1v2v1v1v2v1v1v2v1v2v1v1v2v1v1v2v1v2v1v1v2v1v1v2v1v2v1v1v2v1v2v1v1v2v1v1v2v1v2v1v1v2v1v2v1v1v2v1v2v1 v1v2v1v2v1v1v2v1v2v1v1v2v1v2v1v2v1v1v2v1v2v1v1v2v1v2v1v1v2v1v2v1v2v1v1v2v1v2v1v2v1v1v2v1v2v1v2v1v1v2v1v2v1v2v1v1v2v1v2v1v2v1v2v1v1v2v1v2v1v2v1v1v2v1v2v1v2v1v2v1v2v1v1v2v1v2v1v2v1v2v1v1v2v1v2v1v2v1v2v1v2v1v2v1v1v2v1v2v1v2v1v2v1v2v1v2v1v2v1v1v2v1v2v1v2v1v2 v1v2v1v2v1v2v1v2v1v2v1v2v1v2v1v1v2v1v2v1v2v1v2v1v2v1v2v1v2v1v2v1v2v1v2v1v2v1v2v1v2v1v2v1v2v1v2v1v2v1v2v1v2v1v2v1v2v1v2v1v2v1v2v1v2v1v2v1v2v1v2v1v2v1v2v1v2v1v2v1v2v1v2v1v2v1v2v2v1v2v1v2v1v2v1v2v1v2v1v2v1v2v1v2v1v2v1v2v1v2v2v1v2v1v2v1v2v1v2v1v2v1v2v1v2v1v2 v2v1v2v1v2v1v2v1v2v1v2v1v2v1v2v2v1v2v1v2v1v2v1v2v1v2v1v2v2v1v2v1v2v1v2v1v2v1v2v2v1v2v1v2v1v2v1v2v1v2v2v1v2v1v2v1v2v1v2v1v2v2v1v2v1v2v1v2v1v2v2v1v2v1v2v1v2v1v2v2v1v2v1v2v1v2v1v2v2v1v2v1v2v1v2v1v2v2v1v2v1v2v1v2v1v2v2v1v2v1v2v1v2v1v2v2v1v2v1v2v1v2v1v2v2v1v2 v1v2v1v2v1v2v2v1v2v1v2v1v2v1v2v2v1v2v1v2v1v2v1v2v1v2v2v1v2v1v2v1v2v1v2v2v1v2v1v2v1v2v1v2v1v2v2v1v2v1v2v1v2v1v2v1v2v2v1v2v1v2v1v2v1v2v1v2v1v2v1v2v1v2v2v1v2v1v2v1v2v1v2v1v2v1v2v1v2v1v2v1v2v1v2v1v2v1v2v1v2v1v2v1v2v1v2v1v2v1v2v1v1v2v1v2v1v2v1v2v1v1v2v1v2v1v2 v1v1v2v1v2v1v1v2v1v2v1v1v2v1v1v2v1v1v2v1v1v1v2v1v1v1v2v1v1v1v10q0 25 17.5 42.5t42.5 17.5h112q25 0 42.5 -17.5t17.5 -42.5v-206h166q103 0 186 -41t134 -108t78.5 -152.5t28 -175t-27.5 -175t-79 -152.5t-134 -108t-186 -41h-107q-25 0 -42 -17t-17 -42v-449 q0 -25 -17.5 -42t-42.5 -17h-112q-25 0 -42.5 17t-17.5 42v-1v-1v-1zM334 858q0 -25 17 -42t42 -17h111q61 0 106.5 36t66 90.5t21 118t-19.5 118t-65.5 90.5t-108.5 36h-111q-25 0 -42 -17t-17 -42v-371z" />
<glyph unicode="&#xdf;" horiz-adv-x="1146" d="M102 53v1325q0 199 133 313q110 96 264 95q159 -1 276 -105q151 -136 155 -384q1 -37 -2 -76q-10 -113 -51 -207q-11 -22 -7 -46.5t21 -39.5q50 -49 85 -116.5t51.5 -141t16.5 -153t-16.5 -153.5t-52 -140.5t-84.5 -116t-119.5 -78.5t-153.5 -29h-83q-22 0 -37 15t-15 38 v129q0 23 15 38.5t37 15.5h88q61 0 106.5 40.5t66 100.5t20.5 131t-20 131t-65.5 100.5t-107.5 40.5h-88q-22 0 -37 14.5t-15 36.5v138q0 19 12 33.5t31 17.5q104 20 150 128q44 100 17 209q-26 108 -105 144q-49 22 -109 10q-45 -10 -75.5 -36t-45 -64.5t-19.5 -75 t-5 -82.5v-1200q0 -23 -17.5 -38t-42.5 -15h-110q-25 0 -43.5 15t-18.5 38z" />
<glyph unicode="&#xe0;" horiz-adv-x="1216" d="M106 90q-7 -35 11 -62.5t47 -27.5h117q20 0 35.5 14.5t21.5 38.5q26 112 47 213q6 24 22 38.5t37 14.5h328q21 0 37 -14.5t22 -38.5q14 -63 29.5 -130.5t18.5 -82.5q6 -24 21.5 -38.5t35.5 -14.5h117q29 0 46.5 27.5t10.5 62.5q-22 99 -36.5 162.5t-31 135.5t-94 415 t-209.5 930q-4 23 -20.5 38t-36.5 15h-147q-20 0 -37 -15t-21 -38q-207 -922 -371 -1643zM387 2159q-12 25 2.5 49t42.5 24h137q17 0 30.5 -11t18.5 -28l72 -260q6 -23 -9 -43t-40 -20h-82q-33 0 -45 28zM479 684q14 57 38 163.5t34 149.5q7 33 32 46.5t50.5 0t32.5 -46.5 q70 -309 71 -313q8 -34 -10 -62t-47 -28h-143q-29 0 -47 28t-11 62z" />
<glyph unicode="&#xe1;" horiz-adv-x="1216" d="M106 90q164 721 371 1643q4 23 21 38t37 15h147q20 0 36.5 -15t20.5 -38q132 -587 209.5 -930t94 -415t31 -135.5t36.5 -162.5q7 -35 -10.5 -62.5t-46.5 -27.5h-117q-20 0 -35.5 14.5t-21.5 38.5q-3 15 -18.5 82.5t-29.5 130.5q-6 24 -22 38.5t-37 14.5h-328 q-21 0 -37 -14.5t-22 -38.5q-21 -101 -47 -213q-6 -24 -21.5 -38.5t-35.5 -14.5h-117q-29 0 -47 27.5t-11 62.5zM479 684q-7 -34 11 -62t47 -28h143q29 0 47 28t10 62q-1 4 -71 313q-7 33 -32.5 46.5t-50.5 0t-32 -46.5q-10 -43 -34 -149.5t-38 -163.5zM524 1954l70 260 q5 17 18.5 28t30.5 11h137q28 0 43 -24.5t2 -49.5l-125 -260q-13 -29 -47 -29h-80q-26 0 -41.5 20.5t-7.5 43.5z" />
<glyph unicode="&#xe2;" horiz-adv-x="1216" d="M106 90q-7 -35 11 -62.5t47 -27.5h117q20 0 35.5 14.5t21.5 38.5q26 112 47 213q6 24 22 38.5t37 14.5h328q21 0 37 -14.5t22 -38.5q14 -63 29.5 -130.5t18.5 -82.5q6 -24 21.5 -38.5t35.5 -14.5h117q29 0 46.5 27.5t10.5 62.5q-22 99 -36.5 162.5t-31 135.5t-94 415 t-209.5 930q-4 23 -20.5 38t-36.5 15h-147q-20 0 -37 -15t-21 -38q-207 -922 -371 -1643zM365 1962l120 260q14 31 47 31h152q33 0 47 -31l121 -260q12 -25 -2.5 -48.5t-42.5 -23.5h-107q-30 0 -45 29q-13 31 -47 31t-47 -31q-15 -29 -45 -29h-106q-28 0 -42.5 23.5 t-2.5 48.5zM479 684q14 57 38 163.5t34 149.5q7 33 32 46.5t50.5 0t32.5 -46.5q70 -309 71 -313q8 -34 -10 -62t-47 -28h-143q-29 0 -47 28t-11 62z" />
<glyph unicode="&#xe3;" horiz-adv-x="1216" d="M106 90q164 721 371 1643q4 23 21 38t37 15h147q20 0 36.5 -15t20.5 -38q132 -587 209.5 -930t94 -415t31 -135.5t36.5 -162.5q7 -35 -10.5 -62.5t-46.5 -27.5h-117q-20 0 -35.5 14.5t-21.5 38.5q-3 15 -18.5 82.5t-29.5 130.5q-6 24 -22 38.5t-37 14.5h-328 q-21 0 -37 -14.5t-22 -38.5q-21 -101 -47 -213q-6 -24 -21.5 -38.5t-35.5 -14.5h-117q-29 0 -47 27.5t-11 62.5zM339 1979.5q-2 18.5 9 33.5q47 67 91.5 91.5t81 14t67 -31t64 -42.5t57.5 -22q17 0 29.5 8t31.5 31q13 20 38 21.5t40 -17.5l8 -8q12 -13 12.5 -31.5 t-8.5 -31.5q-41 -59 -79 -83.5t-84.5 -17.5t-106.5 50q-60 44 -91 44.5t-63 -40.5q-15 -20 -39 -21.5t-39 17.5l-4 4q-13 13 -15 31.5zM479 684q-7 -34 11 -62t47 -28h143q29 0 47 28t10 62q-1 4 -71 313q-7 33 -32.5 46.5t-50.5 0t-32 -46.5q-10 -43 -34 -149.5t-38 -163.5 z" />
<glyph unicode="&#xe4;" horiz-adv-x="1216" d="M106 90q-7 -35 11 -62.5t47 -27.5h117q20 0 35.5 14.5t21.5 38.5q26 112 47 213q6 24 22 38.5t37 14.5h328q21 0 37 -14.5t22 -38.5q14 -63 29.5 -130.5t18.5 -82.5q6 -24 21.5 -38.5t35.5 -14.5h117q29 0 46.5 27.5t10.5 62.5q-22 99 -36.5 162.5t-31 135.5t-94 415 t-209.5 930q-4 23 -20.5 38t-36.5 15h-147q-20 0 -37 -15t-21 -38q-207 -922 -371 -1643zM332 1942v129q0 22 14.5 36.5t36.5 14.5h129q22 0 36.5 -14.5t14.5 -36.5v-129q0 -22 -14.5 -37t-36.5 -15h-129q-22 0 -36.5 15t-14.5 37zM479 684q14 57 38 163.5t34 149.5 q7 33 32 46.5t50.5 0t32.5 -46.5q70 -309 71 -313q8 -34 -10 -62t-47 -28h-143q-29 0 -47 28t-11 62zM657 1942v129q0 22 15 36.5t37 14.5h129q22 0 36.5 -14.5t14.5 -36.5v-129q0 -22 -14.5 -37t-36.5 -15h-129q-22 0 -37 15t-15 37z" />
<glyph unicode="&#xe5;" horiz-adv-x="1216" d="M106 90q164 721 371 1643q4 23 21 38t37 15h147q20 0 36.5 -15t20.5 -38q132 -587 209.5 -930t94 -415t31 -135.5t36.5 -162.5q7 -35 -10.5 -62.5t-46.5 -27.5h-117q-20 0 -35.5 14.5t-21.5 38.5q-3 15 -18.5 82.5t-29.5 130.5q-6 24 -22 38.5t-37 14.5h-328 q-21 0 -37 -14.5t-22 -38.5q-21 -101 -47 -213q-6 -24 -21.5 -38.5t-35.5 -14.5h-117q-29 0 -47 27.5t-11 62.5zM426 2071q0 75 52.5 128.5t127.5 53.5t128.5 -53.5t53.5 -128.5q0 -74 -53.5 -127.5t-128.5 -53.5t-127.5 53.5t-52.5 127.5zM479 684q-7 -34 11 -62t47 -28 h143q29 0 47 28t10 62q-1 4 -71 313q-7 33 -32.5 46.5t-50.5 0t-32 -46.5q-10 -43 -34 -149.5t-38 -163.5zM526 2071q0 -32 24 -55t56 -23t56 23t24 55q0 33 -23.5 56t-56.5 23t-56.5 -23t-23.5 -56z" />
<glyph unicode="&#xe6;" horiz-adv-x="1447" d="M106 90q164 721 371 1643q4 23 21 38t37 15h751q25 0 42.5 -17.5t17.5 -42.5v-112q0 -25 -17.5 -42.5t-42.5 -17.5h-387q-25 0 -42 -17t-17 -42v-254q0 -25 17 -42t42 -17h256q26 0 44 -17.5t18 -42.5v-110q0 -25 -18 -43.5t-44 -18.5h-240h-16q-25 0 -42 -17t-17 -42 v-600q0 -25 17 -42.5t42 -17.5h387q25 0 42.5 -17t17.5 -42v-113q0 -25 -17.5 -42t-42.5 -17h-618q-25 0 -42.5 17t-17.5 42v260h-164q-21 0 -37 -14.5t-22 -38.5q-21 -101 -47 -213q-6 -24 -21.5 -38.5t-35.5 -14.5h-117q-29 0 -47 27.5t-11 62.5zM479 684q-7 -34 11 -62 t47 -28h71v455q-20 0 -35.5 -13.5t-21.5 -38.5q-10 -43 -34 -149.5t-38 -163.5z" />
<glyph unicode="&#xe7;" horiz-adv-x="1335" d="M102 891q0 377 150 616q174 279 487 279q311 0 488 -279q8 -12 5 -29t-15 -24l-146 -102q-26 -11 -41 10q-66 90 -148.5 140t-142.5 50q-43 0 -90 -14t-105.5 -58.5t-103 -113.5t-75.5 -192.5t-31 -282.5q0 -115 16 -212t42.5 -163.5t62.5 -118.5t73 -82.5t77.5 -50 t72.5 -26.5t61 -7q61 0 143 50t148 143q17 20 41 6l146 -100q12 -6 15 -25t-5 -29v-2q-149 -237 -406 -272h-4q-4 0 -12 -1t-12 -1q9 -40 -12 -75.5t-72 -71.5q-12 -9 -28.5 -8t-25.5 12l-10 6q-12 13 -11.5 34t15.5 33q35 26 35 50q0 8 -4 20q-275 28 -428 274 q-150 242 -150 617z" />
<glyph unicode="&#xe8;" horiz-adv-x="942" d="M102 59q0 -25 17.5 -42t42.5 -17h618q25 0 42.5 17t17.5 42v113q0 25 -17.5 42t-42.5 17h-387q-25 0 -42 17.5t-17 42.5v731q0 25 17 42t42 17h256q26 0 44 18.5t18 43.5v110q0 25 -18 42.5t-44 17.5h-256q-25 0 -42 17t-17 42v123q0 25 17 42t42 17h387q25 0 42.5 17.5 t17.5 42.5v112q0 25 -17.5 42.5t-42.5 17.5h-618q-25 0 -42.5 -17.5t-17.5 -42.5v-1667zM264 2179q-12 25 2.5 49.5t42.5 24.5h137q17 0 31.5 -11t18.5 -28l71 -260q6 -23 -9 -43.5t-40 -20.5h-82q-32 0 -45 29z" />
<glyph unicode="&#xe9;" horiz-adv-x="942" d="M102 59v1667q0 25 17.5 42.5t42.5 17.5h618q25 0 42.5 -17.5t17.5 -42.5v-112q0 -25 -17.5 -42.5t-42.5 -17.5h-387q-25 0 -42 -17t-17 -42v-123q0 -25 17 -42t42 -17h256q26 0 44 -17.5t18 -42.5v-110q0 -25 -18 -43.5t-44 -18.5h-256q-25 0 -42 -17t-17 -42v-731 q0 -25 17 -42.5t42 -17.5h387q25 0 42.5 -17t17.5 -42v-113q0 -25 -17.5 -42t-42.5 -17h-618q-25 0 -42.5 17t-17.5 42zM381 1954l70 260q5 17 18.5 28t30.5 11h137q28 0 43 -24.5t2 -49.5l-125 -260q-13 -29 -47 -29h-80q-26 0 -41.5 20.5t-7.5 43.5z" />
<glyph unicode="&#xea;" horiz-adv-x="942" d="M102 59q0 -25 17.5 -42t42.5 -17h618q25 0 42.5 17t17.5 42v113q0 25 -17.5 42t-42.5 17h-387q-25 0 -42 17.5t-17 42.5v731q0 25 17 42t42 17h256q26 0 44 18.5t18 43.5v110q0 25 -18 42.5t-44 17.5h-256q-25 0 -42 17t-17 42v123q0 25 17 42t42 17h387q25 0 42.5 17.5 t17.5 42.5v112q0 25 -17.5 42.5t-42.5 17.5h-618q-25 0 -42.5 -17.5t-17.5 -42.5v-1667zM225 1962l121 260q14 31 47 31h152q33 0 47 -31l121 -260q12 -25 -2.5 -48.5t-42.5 -23.5h-107q-13 0 -26 8.5t-19 20.5q-14 31 -47 31t-47 -31q-6 -12 -19 -20.5t-26 -8.5h-107 q-28 0 -42.5 23.5t-2.5 48.5z" />
<glyph unicode="&#xeb;" horiz-adv-x="942" d="M102 59q0 -25 17.5 -42t42.5 -17h618q25 0 42.5 17t17.5 42v113q0 25 -17.5 42t-42.5 17h-387q-25 0 -42 17.5t-17 42.5v731q0 25 17 42t42 17h256q26 0 44 18.5t18 43.5v110q0 25 -18 42.5t-44 17.5h-256q-25 0 -42 17t-17 42v123q0 25 17 42t42 17h387q25 0 42.5 17.5 t17.5 42.5v112q0 25 -17.5 42.5t-42.5 17.5h-618q-25 0 -42.5 -17.5t-17.5 -42.5v-1667zM188 1942v129q0 22 15 36.5t37 14.5h129q22 0 36.5 -14.5t14.5 -36.5v-129q0 -22 -14.5 -37t-36.5 -15h-129q-22 0 -37 15t-15 37zM514 1942v129q0 22 14.5 36.5t36.5 14.5h129 q22 0 36.5 -14.5t14.5 -36.5v-129q0 -22 -14.5 -37t-36.5 -15h-129q-22 0 -36.5 15t-14.5 37z" />
<glyph unicode="&#xec;" horiz-adv-x="542" d="M109 2179q-12 25 2.5 49.5t42.5 24.5h137q17 0 30.5 -11t18.5 -28l72 -260q6 -23 -9.5 -43.5t-40.5 -20.5h-81q-32 0 -45 29zM209 59q0 -25 17 -42t42 -17h113q25 0 42 17t17 42v1667q0 25 -17 42.5t-42 17.5h-113q-25 0 -42 -17.5t-17 -42.5v-1667z" />
<glyph unicode="&#xed;" horiz-adv-x="536" d="M102 59v1667q0 25 17.5 42.5t42.5 17.5h112q25 0 42.5 -17.5t17.5 -42.5v-1667q0 -25 -17.5 -42t-42.5 -17h-112q-25 0 -42.5 17t-17.5 42zM127 1954l70 260q5 17 18.5 28t30.5 11h137q28 0 43 -24.5t2 -49.5l-125 -260q-13 -29 -47 -29h-80q-26 0 -41.5 20.5t-7.5 43.5z " />
<glyph unicode="&#xee;" horiz-adv-x="704" d="M109 1962l120 260q14 31 47 31h152q33 0 47 -31l121 -260q12 -25 -2.5 -48.5t-42.5 -23.5h-107q-30 0 -45 29q-14 31 -47.5 31t-46.5 -31q-15 -29 -45 -29h-106q-28 0 -42.5 23.5t-2.5 48.5zM238 59q0 -25 17 -42t42 -17h113q25 0 42 17t17 42v1667q0 25 -17 42.5 t-42 17.5h-113q-25 0 -42 -17.5t-17 -42.5v-1667z" />
<glyph unicode="&#xef;" horiz-adv-x="761" d="M102 1942v129q0 22 15 36.5t37 14.5h129q22 0 36.5 -14.5t14.5 -36.5v-129q0 -22 -14.5 -37t-36.5 -15h-129q-22 0 -37 15t-15 37zM264 59q0 -25 17.5 -42t42.5 -17h112q25 0 42.5 17t17.5 42v1667q0 25 -17.5 42.5t-42.5 17.5h-112q-25 0 -42.5 -17.5t-17.5 -42.5v-1667 zM428 1942v129q0 22 14.5 36.5t36.5 14.5h129q22 0 36.5 -14.5t14.5 -36.5v-129q0 -22 -14.5 -37t-36.5 -15h-129q-22 0 -36.5 15t-14.5 37z" />
<glyph unicode="&#xf0;" horiz-adv-x="1372" d="M102 584q0 158 78.5 292.5t213 212.5t292.5 78q35 0 51 -2q19 -3 33 15q11 19 2 37l-117 243l-170 -90q-12 -6 -26 -2.5t-21 16.5l-28 56q-7 14 -2.5 27.5t16.5 19.5q76 41 172 92l-57 121q-13 31 4 58.5t49 27.5h123q37 0 55 -35q4 -10 14.5 -31t14.5 -32l178 94 q31 14 47 -15l31 -57q13 -29 -15 -47q-82 -43 -184 -96q81 -170 168 -344t123 -245.5t70.5 -152t43.5 -129.5t9 -112q0 -158 -78.5 -292.5t-213 -213t-292.5 -78.5t-292.5 78.5t-213 213t-78.5 292.5zM328 584q0 -149 105 -254t253 -105q149 0 253.5 105t104.5 254 q0 148 -104.5 253t-253.5 105q-148 0 -253 -105t-105 -253z" />
<glyph unicode="&#xf1;" horiz-adv-x="1161" d="M102 70v1644q0 29 17.5 50.5t42.5 21.5h157q18 0 33 -11.5t21 -29.5l411 -1043q6 -19 27 -16q16 6 16 29v999q0 29 18.5 50.5t43.5 21.5h110q25 0 42.5 -21.5t17.5 -50.5v-1644q0 -27 -17 -47q-20 -23 -43 -23h-157q-38 0 -54 41l-411 1042q-3 9 -10.5 13.5t-14.5 1.5 q-18 -3 -18 -27v-1001q0 -29 -18 -49.5t-44 -20.5h-110q-25 0 -42.5 20.5t-17.5 49.5zM317 1979.5q-2 18.5 9 33.5q47 67 91.5 91.5t81 14t67 -31t63.5 -42.5t57 -22q31 0 62 39q13 20 37.5 21.5t39.5 -17.5l9 -8q12 -13 12.5 -31.5t-8.5 -31.5q-41 -59 -79.5 -83.5 t-85 -17.5t-106.5 50q-60 44 -90.5 44.5t-62.5 -40.5q-15 -20 -39 -21.5t-39 17.5l-4 4q-13 13 -15 31.5z" />
<glyph unicode="&#xf2;" d="M102 891q0 -368 129 -608q77 -138 189.5 -210.5t251.5 -72.5t251 72.5t189 210.5q129 240 129 608q0 373 -129 610q-77 140 -189 212.5t-251 72.5t-251.5 -72.5t-189.5 -212.5q-129 -237 -129 -610zM334 891q0 40 2 84t10.5 113t22 130t39.5 126t60 112t87 77t117 30 t117 -30t87 -77t60 -112t39.5 -126t22 -130t10.5 -113t2 -84q0 -39 -2 -82.5t-10.5 -112t-22 -129t-39.5 -126t-60 -112t-87 -76.5t-117 -30t-117 30t-87 76.5t-60 112t-39.5 126t-22 129t-10.5 112t-2 82.5zM457 2179q-12 25 2.5 49.5t42.5 24.5h137q17 0 30.5 -11 t18.5 -28l72 -260q6 -23 -9 -43.5t-40 -20.5h-82q-32 0 -45 29z" />
<glyph unicode="&#xf3;" d="M102 891q0 373 129 610q77 140 189.5 212.5t251.5 72.5t251 -72.5t189 -212.5q129 -237 129 -610q0 -368 -129 -608q-77 -138 -189 -210.5t-251 -72.5t-251.5 72.5t-189.5 210.5q-129 240 -129 608zM334 891q0 -39 2 -82.5t10.5 -112t22 -129t39.5 -126t60 -112t87 -76.5 t117 -30t117 30t87 76.5t60 112t39.5 126t22 129t10.5 112t2 82.5q0 40 -2 84t-10.5 113t-22 130t-39.5 126t-60 112t-87 77t-117 30t-117 -30t-87 -77t-60 -112t-39.5 -126t-22 -130t-10.5 -113t-2 -84zM580 1954l69 260q5 17 18.5 28t30.5 11h138q28 0 43 -24.5t2 -49.5 l-125 -260q-13 -29 -47 -29h-80q-26 0 -41.5 20.5t-7.5 43.5z" />
<glyph unicode="&#xf4;" d="M102 891q0 -368 129 -608q77 -138 189.5 -210.5t251.5 -72.5t251 72.5t189 210.5q129 240 129 608q0 373 -129 610q-77 140 -189 212.5t-251 72.5t-251.5 -72.5t-189.5 -212.5q-129 -237 -129 -610zM334 891q0 40 2 84t10.5 113t22 130t39.5 126t60 112t87 77t117 30 t117 -30t87 -77t60 -112t39.5 -126t22 -130t10.5 -113t2 -84q0 -39 -2 -82.5t-10.5 -112t-22 -129t-39.5 -126t-60 -112t-87 -76.5t-117 -30t-117 30t-87 76.5t-60 112t-39.5 126t-22 129t-10.5 112t-2 82.5zM424 1962l121 260q14 31 47 31h151q34 0 48 -31l120 -260 q12 -25 -2.5 -48.5t-42.5 -23.5h-106q-30 0 -45 29q-13 31 -47 31t-47 -31q-15 -29 -46 -29h-106q-28 0 -42.5 23.5t-2.5 48.5z" />
<glyph unicode="&#xf5;" d="M102 891q0 373 129 610q77 140 189.5 212.5t251.5 72.5t251 -72.5t189 -212.5q129 -237 129 -610q0 -368 -129 -608q-77 -138 -189 -210.5t-251 -72.5t-251.5 72.5t-189.5 210.5q-129 240 -129 608zM334 891q0 -39 2 -82.5t10.5 -112t22 -129t39.5 -126t60 -112t87 -76.5 t117 -30t117 30t87 76.5t60 112t39.5 126t22 129t10.5 112t2 82.5q0 40 -2 84t-10.5 113t-22 130t-39.5 126t-60 112t-87 77t-117 30t-117 -30t-87 -77t-60 -112t-39.5 -126t-22 -130t-10.5 -113t-2 -84zM421 1979.5q-2 18.5 9 33.5q47 67 91.5 91.5t81 14t67 -31t64 -42.5 t57.5 -22q17 0 29.5 8t31.5 31q13 20 38 21.5t40 -17.5l8 -8q12 -13 12.5 -31.5t-8.5 -31.5q-41 -59 -79 -83.5t-84.5 -17.5t-106.5 50q-60 44 -91 44.5t-63 -40.5q-15 -20 -39 -21.5t-39 17.5l-4 4q-13 13 -15 31.5z" />
<glyph unicode="&#xf6;" d="M102 891q0 -368 129 -608q77 -138 189.5 -210.5t251.5 -72.5t251 72.5t189 210.5q129 240 129 608q0 373 -129 610q-77 140 -189 212.5t-251 72.5t-251.5 -72.5t-189.5 -212.5q-129 -237 -129 -610zM334 891q0 40 2 84t10.5 113t22 130t39.5 126t60 112t87 77t117 30 t117 -30t87 -77t60 -112t39.5 -126t22 -130t10.5 -113t2 -84q0 -39 -2 -82.5t-10.5 -112t-22 -129t-39.5 -126t-60 -112t-87 -76.5t-117 -30t-117 30t-87 76.5t-60 112t-39.5 126t-22 129t-10.5 112t-2 82.5zM387 1942v129q0 22 14.5 36.5t36.5 14.5h129q22 0 36.5 -14.5 t14.5 -36.5v-129q0 -22 -14.5 -37t-36.5 -15h-129q-22 0 -36.5 15t-14.5 37zM713 1942v129q0 22 14.5 36.5t36.5 14.5h129q22 0 36.5 -14.5t14.5 -36.5v-129q0 -22 -14.5 -37t-36.5 -15h-129q-22 0 -36.5 15t-14.5 37z" />
<glyph unicode="&#xf7;" horiz-adv-x="948" d="M102 719q0 -25 17.5 -42.5t42.5 -17.5h624q25 0 42.5 17.5t17.5 42.5v63q0 25 -17.5 42.5t-42.5 17.5h-624q-25 0 -42.5 -17.5t-17.5 -42.5v-63zM358 340v129q0 22 15 36.5t37 14.5h129q22 0 36.5 -14.5t14.5 -36.5v-129q0 -22 -14.5 -36.5t-36.5 -14.5h-129 q-22 0 -37 14.5t-15 36.5zM358 1032v129q0 21 15 36t37 15h129q21 0 36 -15t15 -36v-129q0 -22 -14.5 -36.5t-36.5 -14.5h-129q-22 0 -37 14.5t-15 36.5z" />
<glyph unicode="&#xf8;" d="M102 891q0 373 129 610q77 140 189.5 212.5t251.5 72.5q141 0 256 -74l18 39q18 35 53 35h125q32 0 49.5 -27.5t4.5 -56.5l-82 -174q8 -10 16 -27q129 -237 129 -610q0 -368 -129 -608q-77 -138 -189 -210.5t-251 -72.5q-141 0 -256 74l-19 -39q-15 -35 -53 -35h-125 q-32 0 -49.5 27.5t-3.5 56.5l82 172q-13 18 -17 27q-129 240 -129 608zM334 891q0 -194 43 -356l452 968q-66 60 -157 60q-64 0 -117 -30t-87 -77t-60 -112t-39.5 -126t-22 -130t-10.5 -113t-2 -84zM514 283q66 -60 158 -60q64 0 117 30t87 76.5t60 112t39.5 126t22 129 t10.5 112t2 82.5q0 205 -43 360z" />
<glyph unicode="&#xf9;" horiz-adv-x="1077" d="M102 436q0 -180 128.5 -308t308.5 -128q181 0 308.5 127t127.5 309v1290q0 25 -17.5 42.5t-42.5 17.5h-110q-25 0 -43.5 -17.5t-18.5 -42.5v-1296q0 -83 -57.5 -141t-140.5 -58q-88 0 -149.5 61.5t-61.5 149.5v1284q0 25 -18 42.5t-44 17.5h-110q-25 0 -42.5 -17.5 t-17.5 -42.5v-1290zM326 2179q-12 25 2.5 49.5t42.5 24.5h137q17 0 30.5 -11t18.5 -28l72 -260q6 -23 -9 -43.5t-40 -20.5h-82q-32 0 -45 29z" />
<glyph unicode="&#xfa;" horiz-adv-x="1077" d="M102 436v1290q0 25 17.5 42.5t42.5 17.5h110q26 0 44 -17.5t18 -42.5v-1284q0 -88 61.5 -149.5t149.5 -61.5q83 0 140.5 58t57.5 141v1296q0 25 18.5 42.5t43.5 17.5h110q25 0 42.5 -17.5t17.5 -42.5v-1290q0 -182 -127.5 -309t-308.5 -127q-180 0 -308.5 128t-128.5 308 zM449 1954l69 260q5 17 18.5 28t30.5 11h138q28 0 43 -24.5t2 -49.5l-125 -260q-13 -29 -47 -29h-80q-26 0 -41.5 20.5t-7.5 43.5z" />
<glyph unicode="&#xfb;" horiz-adv-x="1077" d="M102 436q0 -180 128.5 -308t308.5 -128q181 0 308.5 127t127.5 309v1290q0 25 -17.5 42.5t-42.5 17.5h-110q-25 0 -43.5 -17.5t-18.5 -42.5v-1296q0 -83 -57.5 -141t-140.5 -58q-88 0 -149.5 61.5t-61.5 149.5v1284q0 25 -18 42.5t-44 17.5h-110q-25 0 -42.5 -17.5 t-17.5 -42.5v-1290zM291 1962l121 260q14 31 47 31h151q33 0 47 -31l121 -260q12 -25 -2.5 -48.5t-42.5 -23.5h-106q-13 0 -26 8.5t-19 20.5q-14 31 -47.5 31t-47.5 -31q-15 -29 -45 -29h-106q-28 0 -42.5 23.5t-2.5 48.5z" />
<glyph unicode="&#xfc;" horiz-adv-x="1077" d="M102 436q0 -180 128.5 -308t308.5 -128q181 0 308.5 127t127.5 309v1290q0 25 -17.5 42.5t-42.5 17.5h-110q-25 0 -43.5 -17.5t-18.5 -42.5v-1296q0 -83 -57.5 -141t-140.5 -58q-88 0 -149.5 61.5t-61.5 149.5v1284q0 25 -18 42.5t-44 17.5h-110q-25 0 -42.5 -17.5 t-17.5 -42.5v-1290zM256 1942v129q0 22 14.5 36.5t36.5 14.5h129q22 0 36.5 -14.5t14.5 -36.5v-129q0 -22 -14.5 -37t-36.5 -15h-129q-22 0 -36.5 15t-14.5 37zM582 1942v129q0 22 14.5 36.5t36.5 14.5h129q22 0 36.5 -14.5t14.5 -36.5v-129q0 -22 -14.5 -37t-36.5 -15h-129 q-22 0 -36.5 15t-14.5 37z" />
<glyph unicode="&#xfd;" horiz-adv-x="1140" d="M109 1706q-12 27 6 53q20 27 49 27h119q41 0 55 -39l217 -594q3 -10 16 -10q14 0 17 10l215 594q14 39 57 39h117q32 0 49 -27q18 -22 8 -53l-348 -956v-691q0 -25 -17 -42t-42 -17h-111q-25 0 -43 17t-18 42v691zM479 1954l70 260q5 17 18.5 28t30.5 11h137 q28 0 43 -24.5t2 -49.5l-125 -260q-13 -29 -47 -29h-80q-26 0 -41.5 20.5t-7.5 43.5z" />
<glyph unicode="&#xfe;" horiz-adv-x="1030" d="M102 56v1v1v1v1v1v1v1v1v1v1v1v1v1v1v1v1v1v1v1v1v1v1v1v1v1v1v1v1v1v1v1v1v1v1v1v1v1v1v1v1v1v1v1v1v1v1v1v1v1v1v1v1v1v1v1v1v1v1v1v1v1v1v1v1v1v1v1v1v1v1v1v1v1v1v1v1v1v1v1v1v1v1v1v1v1v1v1v1v1v1v1v1v1v1v1v1v1v1v1v1v1v1v1v1v1v1v1v1v1v1v1v1v1v1v1v1v1v1v1v1v1v1 v1v1v1v1v1v1v1v1v1v1v1v1v1v1v1v1v1v1v1v1v1v1v1v1v1v1v1v1v1v1v1v1v1v1v1v1v1v1v1v1v1v1v1v1v1v1v1v1v1v1v1v1v1v1v1v1v1v1v1v1v1v1v1v1v1v1v1v1v1v1v1v1v1v1v1v1v1v1v1v1v1v1v1v1v1v1v1v1v1v1v1v1v1v1v1v1v1v1v1v1v1v1v1v1v1v1v1v1v1v1v1v1v1v1v1v1v1v1v1v1v1v1v1v1v1v1v1 v1v1v1v1v1v1v1v1v1v1v1v1v1v1v1v1v1v1v1v1v1v1v1v1v1v1v1v1v1v1v1v1v1v1v1v1v1v1v1v1v1v1v1v1v1v1v1v1v1v1v1v1v1v1v1v1v1v1v1v1v1v1v1v1v1v1v1v1v1v1v1v1v1v1v1v1v1v1v1v1v1v1v1v1v1v1v1v2v1v1v1v1v1v1v1v1v1v1v1v1v1v1v1v1v1v1v1v2v1v1v1v1v1v1v1v1v1v1v1v1v1v2v1v1v1v1v1 v1v1v1v1v1v1v2v1v1v1v1v1v1v1v1v1v1v2v1v1v1v1v1v1v1v1v2v1v1v1v1v1v1v1v1v2v1v1v1v1v1v1v1v2v1v1v1v1v1v1v2v1v1v1v1v1v1v1v2v1v1v1v1v1v2v1v1v1v1v1v1v2v1v1v1v1v1v2v1v1v1v1v1v2v1v1v1v1v1v2v1v1v1v1v1v2v1v1v1v1v1v2v1v1v1v1v2v1v1v1v1v2v1v1v1v1v2v1v1v1v1v2v1v1v1v1v2 v1v1v1v1v2v1v1v1v1v2v1v1v1v2v1v1v1v1v2v1v1v1v2v1v1v1v1v2v1v1v1v2v1v1v1v2v1v1v1v2v1v1v1v1v2v1v1v1v2v1v1v1v2v1v1v1v2v1v1v2v1v1v1v2v1v1v1v2v1v1v1v2v1v1v1v2v1v1v2v1v1v1v2v1v1v2v1v1v1v2v1v1v1v2v1v1v2v1v1v1v2v1v1v2v1v1v2v1v1v1v2v1v1v2v1v1v2v1v1v1v2v1v1v2v1v1v2 v1v1v2v1v1v2v1v1v1v2v1v1v2v1v1v2v1v1v2v1v1v2v1v1v2v1v1v2v1v1v2v1v1v2v1v1v2v1v1v2v1v1v2v1v1v2v1v1v2v1v1v2v1v2v1v1v2v1v1v2v1v1v2v1v1v2v1v2v1v1v2v1v1v2v1v1v2v1v2v1v1v2v1v1v2v1v2v1v1v2v1v1v2v1v2v1v1v2v1v1v2v1v2v1v1v2v1v2v1v1v2v1v1v2v1v2v1v1v2v1v2v1v1v2v1v2v1 v1v2v1v2v1v1v2v1v2v1v1v2v1v2v1v2v1v1v2v1v2v1v1v2v1v2v1v1v2v1v2v1v2v1v1v2v1v2v1v2v1v1v2v1v2v1v2v1v1v2v1v2v1v2v1v1v2v1v2v1v2v1v2v1v1v2v1v2v1v2v1v1v2v1v2v1v2v1v2v1v2v1v1v2v1v2v1v2v1v2v1v1v2v1v2v1v2v1v2v1v2v1v2v1v1v2v1v2v1v2v1v2v1v2v1v2v1v2v1v1v2v1v2v1v2v1v2 v1v2v1v2v1v2v1v2v1v2v1v2v1v2v1v1v2v1v2v1v2v1v2v1v2v1v2v1v2v1v2v1v2v1v2v1v2v1v2v1v2v1v2v1v2v1v2v1v2v1v2v1v2v1v2v1v2v1v2v1v2v1v2v1v2v1v2v1v2v1v2v1v2v1v2v1v2v1v2v1v2v1v2v1v2v1v2v2v1v2v1v2v1v2v1v2v1v2v1v2v1v2v1v2v1v2v1v2v1v2v2v1v2v1v2v1v2v1v2v1v2v1v2v1v2v1v2 v2v1v2v1v2v1v2v1v2v1v2v1v2v1v2v2v1v2v1v2v1v2v1v2v1v2v1v2v2v1v2v1v2v1v2v1v2v1v2v2v1v2v1v2v1v2v1v2v1v2v2v1v2v1v2v1v2v1v2v1v2v2v1v2v1v2v1v2v1v2v2v1v2v1v2v1v2v1v2v2v1v2v1v2v1v2v1v2v2v1v2v1v2v1v2v1v2v2v1v2v1v2v1v2v1v2v2v1v2v1v2v1v2v1v2v2v1v2v1v2v1v2v1v2v2v1v2 v1v2v1v2v1v2v2v1v2v1v2v1v2v1v2v2v1v2v1v2v1v2v1v2v1v2v2v1v2v1v2v1v2v1v2v2v1v2v1v2v1v2v1v2v1v2v2v1v2v1v2v1v2v1v2v1v2v2v1v2v1v2v1v2v1v2v1v2v1v2v1v2v1v2v2v1v2v1v2v1v2v1v2v1v2v1v2v1v2v1v2v1v2v1v2v1v2v1v2v1v2v1v2v1v2v1v2v1v2v1v2v1v1v2v1v2v1v2v1v2v1v1v2v1v2v1v2 v1v1v2v1v2v1v1v2v1v2v1v1v2v1v1v2v1v1v2v1v1v1v2v1v1v1v2v1v1v1v10q0 25 17.5 42.5t42.5 17.5h112q25 0 42.5 -17.5t17.5 -42.5v-206h166q103 0 186 -41t134 -108t78.5 -152.5t28 -175t-27.5 -175t-79 -152.5t-134 -108t-186 -41h-107q-25 0 -42 -17t-17 -42v-449 q0 -25 -17.5 -42t-42.5 -17h-112q-25 0 -42.5 17t-17.5 42v-1v-1v-1zM334 858q0 -25 17 -42t42 -17h111q61 0 106.5 36t66 90.5t21 118t-19.5 118t-65.5 90.5t-108.5 36h-111q-25 0 -42 -17t-17 -42v-371z" />
<glyph unicode="&#xff;" horiz-adv-x="1140" d="M109 1706l346 -956v-691q0 -25 18 -42t43 -17h111q25 0 42 17t17 42v691l348 956q10 31 -8 53q-17 27 -49 27h-117q-43 0 -57 -39l-215 -594q-3 -10 -17 -10q-13 0 -16 10l-217 594q-14 39 -55 39h-119q-29 0 -49 -27q-18 -26 -6 -53zM293 1942v129q0 22 14.5 36.5 t36.5 14.5h129q22 0 36.5 -14.5t14.5 -36.5v-129q0 -22 -14.5 -37t-36.5 -15h-129q-22 0 -36.5 15t-14.5 37zM618 1942v129q0 22 15 36.5t37 14.5h129q22 0 36.5 -14.5t14.5 -36.5v-129q0 -22 -14.5 -37t-36.5 -15h-129q-22 0 -37 15t-15 37z" />
<glyph unicode="&#x152;" horiz-adv-x="1511" d="M102 891q0 134 19 259t62.5 242t107.5 203.5t162 138.5t219 52h678q25 0 42 -17.5t17 -42.5v-112q0 -25 -17 -42.5t-42 -17.5h-387q-25 0 -42.5 -17t-17.5 -42v-254q0 -25 17.5 -42t42.5 -17h256q26 0 43.5 -17.5t17.5 -42.5v-110q0 -19 -11 -35.5t-28 -22.5l-1 -1 q-9 -3 -101 -3h-1h-1h-1h-1h-1h-1h-1h-1h-1h-1h-1h-1h-1h-1h-1h-1h-160q-25 0 -42.5 -17t-17.5 -42v-600q0 -25 17.5 -42.5t42.5 -17.5h387q25 0 42 -17t17 -42v-113q0 -25 -17 -42t-42 -17h-678q-102 0 -188 36t-147 101t-107 149.5t-73.5 185.5t-41 205.5t-13.5 213.5z M334 891q0 -39 2 -82.5t10.5 -112t22 -129t39.5 -126t60 -112t87 -76.5t117 -30v1340q-64 0 -117 -30t-87 -77t-60 -112t-39.5 -126t-22 -130t-10.5 -113t-2 -84z" />
<glyph unicode="&#x153;" horiz-adv-x="1511" d="M102 891q0 134 19 259t62.5 242t107.5 203.5t162 138.5t219 52h678q25 0 42 -17.5t17 -42.5v-112q0 -25 -17 -42.5t-42 -17.5h-387q-25 0 -42.5 -17t-17.5 -42v-254q0 -25 17.5 -42t42.5 -17h256q26 0 43.5 -17.5t17.5 -42.5v-110q0 -19 -11 -35.5t-28 -22.5l-1 -1 q-9 -3 -101 -3h-1h-1h-1h-1h-1h-1h-1h-1h-1h-1h-1h-1h-1h-1h-1h-1h-160q-25 0 -42.5 -17t-17.5 -42v-600q0 -25 17.5 -42.5t42.5 -17.5h387q25 0 42 -17t17 -42v-113q0 -25 -17 -42t-42 -17h-678q-102 0 -188 36t-147 101t-107 149.5t-73.5 185.5t-41 205.5t-13.5 213.5z M334 891q0 -39 2 -82.5t10.5 -112t22 -129t39.5 -126t60 -112t87 -76.5t117 -30v1340q-64 0 -117 -30t-87 -77t-60 -112t-39.5 -126t-22 -130t-10.5 -113t-2 -84z" />
<glyph unicode="&#x178;" horiz-adv-x="1140" d="M109 1706l346 -956v-691q0 -25 18 -42t43 -17h111q25 0 42 17t17 42v691l348 956q10 31 -8 53q-17 27 -49 27h-117q-43 0 -57 -39l-215 -594q-3 -10 -17 -10q-13 0 -16 10l-217 594q-14 39 -55 39h-119q-29 0 -49 -27q-18 -26 -6 -53zM293 1942v129q0 22 14.5 36.5 t36.5 14.5h129q22 0 36.5 -14.5t14.5 -36.5v-129q0 -22 -14.5 -37t-36.5 -15h-129q-22 0 -36.5 15t-14.5 37zM618 1942v129q0 22 15 36.5t37 14.5h129q22 0 36.5 -14.5t14.5 -36.5v-129q0 -22 -14.5 -37t-36.5 -15h-129q-22 0 -37 15t-15 37z" />
<glyph unicode="&#x2c6;" horiz-adv-x="704" d="M109 1962l120 260q14 31 47 31h152q33 0 47 -31l121 -260q12 -25 -2.5 -48.5t-42.5 -23.5h-107q-30 0 -45 29q-14 31 -47.5 31t-46.5 -31q-15 -29 -45 -29h-106q-28 0 -42.5 23.5t-2.5 48.5z" />
<glyph unicode="&#x2dc;" horiz-adv-x="737" d="M104 1672q-2 19 9 34q47 67 91.5 91.5t81 14t67 -31t63.5 -42.5t57 -22q31 0 62 39q13 20 37.5 21.5t39.5 -17.5l9 -8q12 -13 12.5 -31.5t-8.5 -31.5q-41 -59 -79.5 -84t-85 -18t-106.5 50q-60 44 -90.5 44.5t-62.5 -40.5q-15 -20 -39 -21.5t-39 17.5l-4 4q-13 13 -15 32 z" />
<glyph unicode="&#x2000;" horiz-adv-x="1126" />
<glyph unicode="&#x2001;" horiz-adv-x="2253" />
<glyph unicode="&#x2002;" horiz-adv-x="1126" />
<glyph unicode="&#x2003;" horiz-adv-x="2253" />
<glyph unicode="&#x2004;" horiz-adv-x="751" />
<glyph unicode="&#x2005;" horiz-adv-x="563" />
<glyph unicode="&#x2006;" horiz-adv-x="375" />
<glyph unicode="&#x2007;" horiz-adv-x="375" />
<glyph unicode="&#x2008;" horiz-adv-x="281" />
<glyph unicode="&#x2009;" horiz-adv-x="450" />
<glyph unicode="&#x200a;" horiz-adv-x="125" />
<glyph unicode="&#x2010;" horiz-adv-x="688" d="M102 694v113q0 25 17.5 42t42.5 17h364q25 0 42.5 -17t17.5 -42v-113q0 -25 -17.5 -42t-42.5 -17h-364q-25 0 -42.5 17t-17.5 42z" />
<glyph unicode="&#x2011;" horiz-adv-x="688" d="M102 694v113q0 25 17.5 42t42.5 17h364q25 0 42.5 -17t17.5 -42v-113q0 -25 -17.5 -42t-42.5 -17h-364q-25 0 -42.5 17t-17.5 42z" />
<glyph unicode="&#x2012;" horiz-adv-x="688" d="M102 694v113q0 25 17.5 42t42.5 17h364q25 0 42.5 -17t17.5 -42v-113q0 -25 -17.5 -42t-42.5 -17h-364q-25 0 -42.5 17t-17.5 42z" />
<glyph unicode="&#x2013;" horiz-adv-x="1228" d="M102 694v113q0 25 37 42t90 17h770q53 0 90 -17t37 -42v-113q0 -25 -37 -42t-90 -17h-770q-53 0 -90 17t-37 42z" />
<glyph unicode="&#x2014;" horiz-adv-x="2252" d="M102 694v113q0 25 74 42t180 17h1540q106 0 180 -17t74 -42v-113q0 -25 -74 -42t-180 -17h-1540q-106 0 -180 17t-74 42z" />
<glyph unicode="&#x202f;" horiz-adv-x="450" />
<glyph unicode="&#x2039;" horiz-adv-x="534" d="M104 754q-3 14 0 26l119 494q4 20 20.5 32.5t37.5 12.5h90q29 0 47 -23t10 -51l-111 -465q-3 -12 0 -26l113 -500q6 -28 -11.5 -50t-45.5 -22h-92q-21 0 -37.5 13t-20.5 34z" />
<glyph unicode="&#x203a;" horiz-adv-x="534" d="M104 254l111 500q3 14 0 26l-111 465q-6 28 12 51t46 23h92q20 0 36.5 -12.5t20.5 -32.5l119 -494q3 -12 0 -26l-119 -525q-4 -22 -20.5 -34.5t-38.5 -12.5h-90q-29 0 -46.5 22t-11.5 50z" />
<glyph unicode="&#x205f;" horiz-adv-x="563" />
<glyph unicode="&#x20ac;" horiz-adv-x="1431" d="M102 729v64q0 15 10 24.5t25 9.5h64v64v67h-64q-15 0 -25 10t-10 25v64q0 15 10 25t25 10h76q31 251 137 415q174 279 486 279q313 0 487 -279q8 -12 5 -29t-15 -24l-146 -102q-26 -11 -41 10q-66 90 -148 139t-142 49q-36 0 -76 -10.5t-90.5 -41t-93 -79t-79 -133.5 t-53.5 -194h510q15 0 25 -10t10 -25v-64q0 -15 -10 -25t-25 -10h-522v-67v-64h522q15 0 25 -9.5t10 -24.5v-64q0 -15 -10 -25t-25 -10h-510q17 -110 53.5 -195.5t79 -134t93 -79.5t90.5 -41.5t76 -10.5q60 0 142 50t148 141q16 22 41 8l146 -100q12 -7 15 -24t-5 -29v-5 q-175 -274 -487 -274q-311 0 -486 274q-107 170 -137 420h-76q-15 0 -25 10t-10 25z" />
<glyph unicode="&#x2122;" horiz-adv-x="1230" d="M102 1733v49q0 10 8 18t19 8h324q11 0 18.5 -8t7.5 -18v-49q0 -11 -8 -19t-18 -8h-84q-11 0 -19 -8t-8 -19v-514q0 -10 -8 -18t-19 -8h-49q-10 0 -18 7.5t-8 18.5v514q0 11 -8 19t-19 8h-84q-11 0 -19 8t-8 19zM530 1167v615q0 11 8.5 18.5t20.5 7.5h64q17 0 24 -18 l172 -471q4 -8 10 -8q7 0 11 8l172 471q7 18 24 18h64q12 0 20 -7.5t8 -18.5v-615q0 -12 -8 -20t-20 -8h-47q-12 0 -20.5 8t-8.5 20v295q0 11 -8 11q-7 2 -12 -7l-113 -309q-7 -18 -25 -18h-71q-20 0 -27 18l-113 309q-5 9 -12 7q-8 0 -8 -11v-295q0 -12 -8.5 -20t-20.5 -8 h-47q-12 0 -20.5 8t-8.5 20z" />
<glyph unicode="&#x25fc;" horiz-adv-x="1781" d="M0 0v1782h1782v-1782h-1782z" />
</font>
</defs>
</svg>
